<svg width="50" height="49" viewBox="0 0 50 49" fill="none" xmlns="http://www.w3.org/2000/svg">
<path d="M34.9124 19.8112H34.9122L34.9126 19.8174C34.9201 19.9376 35.0339 21.6448 35.9386 23.3856C36.8458 25.1312 38.5505 26.9126 41.7303 27.1579C45.6296 27.4596 47.6642 28.7871 48.7268 30.0488C49.7805 31.2998 49.8901 32.4998 49.8978 32.6101L49.9 48.0525C49.8999 48.2618 49.8165 48.4627 49.6679 48.6109C49.5194 48.7591 49.3178 48.8424 49.1075 48.8426L0.893894 48.8565C0.893884 48.8565 0.893875 48.8565 0.893865 48.8565C0.683679 48.8552 0.482519 48.7715 0.333949 48.6234C0.185456 48.4755 0.101447 48.2752 0.1 48.066V32.6827C0.108288 32.5495 0.216068 31.3317 1.27306 30.0699C2.33592 28.801 4.37041 27.4736 8.26967 27.1718C11.4495 26.9265 13.1542 25.1451 14.0616 23.3935C14.9665 21.6467 15.0806 19.9275 15.0888 19.783L15.0889 19.783L15.0889 19.7773L15.0877 13.0788L15.0877 13.0255L15.0434 12.9958C10.0607 9.64895 10.2772 6.43057 10.2868 6.32226L10.2872 6.3223L10.2872 6.31338L10.2837 0.933549C10.2837 0.933536 10.2837 0.933523 10.2837 0.93351C10.2837 0.829802 10.3042 0.727098 10.344 0.631262C10.3838 0.535414 10.4421 0.448304 10.5158 0.374918C10.5894 0.301531 10.6768 0.243307 10.773 0.203586C10.8692 0.163864 10.9724 0.14343 11.0765 0.143457H11.0766H38.8285C39.0385 0.144902 39.2395 0.228715 39.3879 0.376679C39.5364 0.524699 39.6203 0.724996 39.6217 0.934188C39.6217 0.934201 39.6217 0.934214 39.6217 0.934228L39.6195 6.37334H39.6195L39.6196 6.37678C39.6347 6.81958 39.5456 9.81236 34.9561 12.9337L34.9124 12.9635V13.0164V19.8112ZM11.8694 1.82371V6.38823C11.8648 6.53389 11.8466 9.17427 16.4764 12.0486L16.477 12.049C19.1444 13.6789 20.8369 14.5348 22.092 14.9836C23.3518 15.4341 24.1692 15.4735 25.0802 15.4772H25.0806C26.5222 15.4772 28.3466 15.2027 33.4267 12.0485C38.0786 9.16061 38.0381 6.50886 38.0359 6.44474L38.0359 6.44473L38.0357 6.44146C38.0349 6.42992 38.0338 6.4001 38.0338 6.38996L38.0355 1.82375L38.0355 1.72371H37.9355H11.9694H11.8694V1.82371ZM27.5995 16.8479L27.6267 16.6916L27.474 16.7344C25.8584 17.1875 24.1502 17.1971 22.5296 16.7625L22.3786 16.722L22.4051 16.876C22.6944 18.5564 22.8756 20.2535 22.9476 21.9569L22.9501 22.0167L23.004 22.0427C23.4875 22.276 23.7871 22.7043 24.0505 23.1684C24.1052 23.2647 24.1596 23.3651 24.214 23.4653C24.287 23.5998 24.3598 23.7341 24.4327 23.8577C24.5625 24.0776 24.7036 24.2843 24.8759 24.4474L24.9159 24.4853L24.9693 24.4717C25.029 24.4565 25.0813 24.4205 25.1279 24.3758C25.1747 24.3307 25.221 24.2717 25.2684 24.2014C25.3628 24.061 25.47 23.8624 25.5996 23.6084L25.5999 23.6085L25.603 23.601C25.8831 22.9219 26.3752 22.3507 27.0064 21.9721L27.0526 21.9444L27.0549 21.8906C27.1269 20.1997 27.3088 18.5153 27.5995 16.8479ZM1.68571 47.1763L1.68574 47.2763L1.78574 47.2763L22.0215 47.2702L22.1776 47.2701L22.1124 47.1284C21.7492 46.3388 21.6655 45.9814 21.6566 45.522C21.6533 45.3564 21.6599 45.1788 21.6678 44.9622C21.6712 44.8702 21.6748 44.7711 21.6781 44.6628C21.6889 44.3025 21.6952 43.8486 21.6722 43.2352C21.6716 42.5757 21.6716 41.835 21.6716 41.0562L21.6716 40.9287C21.6715 40.1026 21.6715 39.2368 21.6707 38.382C21.6701 37.7674 21.6698 37.1515 21.6695 36.5689C21.669 35.6075 21.6685 34.7366 21.6668 34.1115L21.6665 34.0066L21.5617 34.0119C21.3301 34.0236 21.0979 34.0155 20.8677 33.9877L20.8677 33.9876L20.8622 33.9872C20.0399 33.9336 19.4343 33.6538 18.9854 33.2366C18.535 32.8179 18.2363 32.2548 18.04 31.6256C17.6465 30.364 17.6726 28.8633 17.6916 27.7997L17.6916 27.7977C17.6914 27.6914 17.6908 27.5828 17.6902 27.4723C17.6846 26.476 17.6781 25.3206 17.9548 24.2849C18.2598 23.1432 18.9057 22.1588 20.2772 21.705C20.5924 21.6474 20.9121 21.6176 21.2325 21.6161L21.339 21.6156L21.3318 21.5094C21.0785 17.7621 20.7505 16.6485 20.6314 16.3564L20.6229 16.3357L20.6065 16.3206C20.5175 16.2387 20.4487 16.1374 20.4055 16.0246L20.3909 15.9864L20.3537 15.9694C19.143 15.416 17.9648 14.7944 16.8249 14.1075L16.6733 14.0161V14.1931V19.8226C16.5989 21.2762 16.0807 23.3899 14.8049 25.1984C13.5308 27.0044 11.5007 28.5075 8.39204 28.7474C5.26524 28.9891 3.58907 29.937 2.69267 30.857C1.79688 31.7765 1.69133 32.6564 1.68312 32.7414L1.68266 32.7413L1.68266 32.751L1.68571 47.1763ZM26.7418 45.5132V45.5116L26.7419 44.0809L26.7419 43.9809H26.6419H23.358H23.2529L23.2582 44.0858C23.2764 44.4517 23.2697 44.7382 23.2608 44.9777C23.2593 45.0179 23.2577 45.0569 23.2562 45.095C23.2487 45.2819 23.2422 45.4446 23.2505 45.5947C23.2607 45.7788 23.2933 45.9479 23.3732 46.1317C23.4525 46.3139 23.5765 46.5064 23.7646 46.74L23.7639 46.7405L23.7734 46.7496C24.0201 46.985 24.3303 47.1435 24.666 47.2058C25.0016 47.268 25.3482 47.2313 25.6632 47.1001C25.9783 46.9689 26.2482 46.7489 26.4398 46.4671C26.6314 46.1852 26.7364 45.8537 26.7418 45.5132ZM26.6422 42.4006H26.7421L26.7422 42.3006C26.7424 41.3577 26.7427 40.2962 26.7431 39.2331L26.7432 39.133H26.6431H23.3569H23.2569L23.2569 39.233L23.2578 42.3006L23.2579 42.4006H23.3578H26.6422ZM26.644 37.5528H26.7439L26.744 37.4528C26.745 35.7838 26.7465 34.3058 26.7488 33.5451L26.749 33.4955L26.7096 33.4654C26.2182 33.0892 25.8342 32.5913 25.5958 32.0213L25.596 32.0212L25.5925 32.0143C25.4666 31.7684 25.3604 31.5725 25.2667 31.432C25.2198 31.3617 25.1741 31.3022 25.1284 31.2564C25.0833 31.2111 25.0327 31.1734 24.9751 31.1558L24.9241 31.1402L24.8827 31.1739C24.7455 31.2858 24.6302 31.4393 24.5264 31.6076C24.4276 31.7679 24.3356 31.9478 24.2444 32.1262L24.2305 32.1535C24.0354 32.535 23.8428 32.9015 23.5784 33.1269L23.5778 33.1262L23.5692 33.1358C23.4828 33.2312 23.3889 33.3196 23.2885 33.4002L23.251 33.4303L23.2511 33.4785C23.2534 34.2402 23.255 35.75 23.256 37.4528L23.2561 37.5528H23.356H26.644ZM27.0013 31.2885L27.0007 31.2888L27.0062 31.2986C27.0382 31.3557 27.0688 31.4114 27.0983 31.4652C27.1675 31.5911 27.2312 31.7073 27.295 31.8093C27.3873 31.9568 27.4853 32.0846 27.6125 32.1849C27.871 32.3886 28.2255 32.4601 28.8274 32.4205L28.8274 32.4204C29.2212 32.3942 29.5402 32.267 29.793 32.0407C30.0444 31.8157 30.2229 31.4992 30.3487 31.1065C30.5993 30.325 30.6499 29.2123 30.6258 27.8292C30.6442 26.8163 30.6484 25.7865 30.4763 24.9565C30.3045 24.1271 29.9491 23.4636 29.222 23.2371L29.2116 23.2339L29.2008 23.2329C28.7435 23.1936 28.4138 23.1741 28.1471 23.2209C27.8714 23.2694 27.6661 23.3878 27.4527 23.6091L27.4524 23.6089L27.447 23.6155C27.2707 23.8328 27.1241 24.0724 27.0111 24.3282L27.0103 24.3303C26.5463 25.4503 25.7586 26.0295 24.983 26.0501C24.2103 26.0706 23.4016 25.5372 22.8923 24.3282L22.8923 24.3281L22.8912 24.3257C22.6674 23.8326 22.4368 23.5109 22.0899 23.3402C21.7467 23.1713 21.3092 23.1601 20.6991 23.2333L20.69 23.2344L20.6812 23.2371C19.9557 23.464 19.6012 24.1229 19.4293 24.9479C19.2574 25.7734 19.2608 26.7983 19.2773 27.8101C19.2523 29.2028 19.3025 30.3198 19.5457 31.1026C19.6678 31.4958 19.8407 31.8123 20.0841 32.0371C20.3291 32.2635 20.6384 32.3902 21.0193 32.4153C21.6757 32.4607 22.0409 32.3907 22.2979 32.1852C22.4244 32.084 22.5181 31.955 22.607 31.8083C22.6515 31.7349 22.6958 31.6553 22.7424 31.5714L22.7459 31.565C22.7917 31.4825 22.8402 31.3952 22.895 31.3023L22.8957 31.3027L22.9008 31.2907C23.4045 30.1074 24.2014 29.5631 24.9676 29.5724C25.735 29.5817 26.521 30.1467 27.0013 31.2885ZM48.2143 47.2624L48.3143 47.2624V47.1624L48.3143 32.6658V32.6583L48.3132 32.6508L48.313 32.6497L48.3126 32.6464L48.311 32.6355C48.3097 32.6265 48.3078 32.6144 48.3051 32.5994C48.2999 32.5695 48.2917 32.5284 48.2794 32.4775C48.2546 32.3757 48.2129 32.235 48.1433 32.0673C48.0042 31.7318 47.754 31.2888 47.3067 30.8339C46.4108 29.9231 44.7349 28.9753 41.608 28.7336C38.4993 28.4936 36.4691 26.9905 35.1952 25.19C33.9195 23.3871 33.4018 21.2847 33.328 19.8538L33.3269 14.1365L33.3269 13.9592L33.1752 14.051C32.0379 14.7386 30.8633 15.3629 29.6566 15.9208L29.6159 15.9396L29.6029 15.9824C29.5635 16.1121 29.4907 16.2292 29.3918 16.3223L29.376 16.3372L29.3678 16.3573C29.249 16.6484 28.9216 17.761 28.6675 21.5138L28.6604 21.619L28.7658 21.6206C29.054 21.6248 29.3413 21.6528 29.6248 21.7042C30.9985 22.1587 31.6448 23.145 31.9496 24.2889C32.2258 25.3255 32.219 26.4819 32.213 27.4796C32.2124 27.5915 32.2117 27.7014 32.2115 27.8089H32.2113L32.2116 27.8144C32.2728 28.9866 32.2427 30.6014 31.7364 31.8924C31.4838 32.5364 31.115 33.0941 30.5853 33.4778C30.057 33.8606 29.3601 34.0766 28.439 34.0234L28.3334 34.0173L28.3332 34.1231C28.3297 36.1411 28.3278 40.4862 28.3281 43.1889C28.3048 43.8087 28.311 44.2688 28.322 44.6349C28.3253 44.7462 28.329 44.848 28.3324 44.9426C28.3404 45.1616 28.347 45.3417 28.3439 45.5094C28.3354 45.9776 28.2519 46.3398 27.8882 47.1265L27.8226 47.2685L27.979 47.2685L48.2143 47.2624Z" fill="#08607C" stroke="#F9F9F9" stroke-width="0.2"/>
</svg>
