<svg width="40" height="43" viewBox="0 0 40 43" fill="none" xmlns="http://www.w3.org/2000/svg">
<path d="M31.0252 39.4716C30.8708 39.4717 30.7221 39.4136 30.6087 39.309C30.4952 39.2044 30.4253 39.0609 30.4128 38.907C30.4004 38.7532 30.4463 38.6003 30.5414 38.4788C30.6366 38.3573 30.774 38.2761 30.9263 38.2513C31.9979 38.0779 32.9725 37.5277 33.6745 36.6997C34.3765 35.8716 34.7599 34.8202 34.7556 33.7347C34.7557 33.2849 34.6907 32.8374 34.5628 32.4062C34.5399 32.3289 34.5325 32.2478 34.541 32.1676C34.5495 32.0874 34.5736 32.0096 34.6122 31.9387C34.6507 31.8679 34.7028 31.8053 34.7655 31.7546C34.8282 31.7039 34.9003 31.666 34.9776 31.6431C35.055 31.6203 35.1361 31.6128 35.2163 31.6213C35.2965 31.6298 35.3743 31.654 35.4451 31.6925C35.516 31.731 35.5786 31.7831 35.6293 31.8458C35.68 31.9086 35.7179 31.9806 35.7407 32.058C35.9028 32.6022 35.9856 33.1669 35.9864 33.7347C35.9916 35.1118 35.5051 36.4455 34.6143 37.4958C33.7236 38.5461 32.4872 39.2439 31.1277 39.4636C31.0938 39.4688 31.0595 39.4715 31.0252 39.4716Z" fill="#08607C"/>
<path d="M8.07535 39.4716C8.04183 39.4714 8.00837 39.4687 7.97524 39.4636C6.61576 39.2439 5.37936 38.5461 4.48864 37.4958C3.59791 36.4455 3.11135 35.1118 3.11656 33.7347C3.11742 33.1669 3.20016 32.6022 3.36223 32.058C3.38509 31.9806 3.42297 31.9086 3.47369 31.8458C3.52441 31.7831 3.58699 31.731 3.65785 31.6925C3.72871 31.654 3.80647 31.6298 3.88668 31.6213C3.96689 31.6128 4.04798 31.6203 4.12533 31.6431C4.20268 31.666 4.27476 31.7039 4.33747 31.7546C4.40018 31.8053 4.45228 31.8679 4.49081 31.9387C4.52933 32.0096 4.55352 32.0874 4.562 32.1676C4.57047 32.2478 4.56306 32.3289 4.5402 32.4062C4.41225 32.8374 4.34729 33.2849 4.34735 33.7347C4.34307 34.8202 4.72646 35.8716 5.42848 36.6997C6.13051 37.5277 7.10506 38.0779 8.17669 38.2513C8.32901 38.2761 8.46641 38.3573 8.56156 38.4788C8.6567 38.6003 8.7026 38.7532 8.69014 38.907C8.67768 39.0609 8.60776 39.2044 8.49429 39.309C8.38083 39.4136 8.23214 39.4717 8.07781 39.4716H8.07535Z" fill="#08607C"/>
<path d="M31.641 10.1589C31.528 10.1589 31.4173 10.1277 31.3209 10.0688C31.2246 10.0099 31.1463 9.92557 31.0948 9.82509C31.0432 9.7246 31.0204 9.61185 31.0288 9.49923C31.0372 9.38661 31.0764 9.27847 31.1423 9.18672C31.516 8.66462 31.7155 8.03789 31.7122 7.3958C31.7111 6.65254 31.4452 5.93399 30.9621 5.36906C30.4791 4.80413 29.8106 4.42979 29.0766 4.31317C28.3425 4.19656 27.5909 4.34531 26.9566 4.73274C26.3223 5.12018 25.8468 5.72094 25.6154 6.42726C25.562 6.57874 25.4515 6.7033 25.3075 6.77427C25.1634 6.84523 24.9973 6.85696 24.8447 6.80692C24.6921 6.75689 24.5652 6.64908 24.4911 6.50659C24.417 6.3641 24.4017 6.19827 24.4484 6.04464C24.7707 5.06042 25.4332 4.22328 26.317 3.68348C27.2008 3.14367 28.2481 2.93654 29.2709 3.09926C30.2937 3.26198 31.2249 3.7839 31.8976 4.57134C32.5703 5.35877 32.9403 6.36017 32.9412 7.3958C32.9455 8.29468 32.6661 9.172 32.1427 9.90284C32.0856 9.98246 32.0102 10.0473 31.923 10.0918C31.8357 10.1364 31.739 10.1594 31.641 10.1589Z" fill="#08607C"/>
<path d="M36.4291 17.2596C36.3281 17.2596 36.2287 17.2347 36.1397 17.1871C36.0507 17.1395 35.9747 17.0707 35.9186 16.9868C35.8625 16.9028 35.828 16.8064 35.818 16.7059C35.8081 16.6055 35.823 16.5041 35.8616 16.4108C36.0763 15.883 36.1848 15.318 36.181 14.7482C36.188 14.1415 36.0745 13.5394 35.8472 12.9768C35.6199 12.4142 35.2832 11.9023 34.8566 11.4708C34.43 11.0392 33.9221 10.6966 33.3621 10.4628C32.8022 10.229 32.2015 10.1086 31.5947 10.1086C30.9879 10.1086 30.3871 10.229 29.8272 10.4628C29.2673 10.6966 28.7593 11.0392 28.3327 11.4708C27.9062 11.9023 27.5695 12.4142 27.3421 12.9768C27.1148 13.5394 27.0013 14.1415 27.0084 14.7482C27.0084 14.9111 26.9437 15.0673 26.8285 15.1825C26.7133 15.2977 26.5571 15.3624 26.3942 15.3624C26.2313 15.3624 26.0751 15.2977 25.9599 15.1825C25.8447 15.0673 25.78 14.9111 25.78 14.7482C25.7721 13.9796 25.9167 13.2171 26.2054 12.5047C26.494 11.7923 26.9211 11.1442 27.4618 10.5979C28.0025 10.0516 28.6462 9.61788 29.3556 9.32191C30.065 9.02593 30.826 8.87354 31.5947 8.87354C32.3633 8.87354 33.1244 9.02593 33.8337 9.32191C34.5431 9.61788 35.1868 10.0516 35.7275 10.5979C36.2682 11.1442 36.6953 11.7923 36.984 12.5047C37.2726 13.2171 37.4172 13.9796 37.4093 14.7482C37.4136 15.4798 37.2736 16.2051 36.9972 16.8825C36.9503 16.9944 36.8714 17.09 36.7703 17.1571C36.6692 17.2242 36.5504 17.2599 36.4291 17.2596Z" fill="#08607C"/>
<path d="M33.2838 26.5945C33.0842 26.5945 32.8864 26.584 32.6917 26.565C32.6115 26.5569 32.5336 26.5331 32.4626 26.495C32.3915 26.4568 32.3287 26.405 32.2776 26.3426C32.2266 26.2801 32.1883 26.2082 32.1651 26.131C32.1418 26.0538 32.134 25.9727 32.1421 25.8925C32.1501 25.8122 32.1739 25.7343 32.2121 25.6633C32.2502 25.5922 32.302 25.5294 32.3645 25.4783C32.4269 25.4273 32.4988 25.3891 32.576 25.3658C32.6533 25.3425 32.7343 25.3347 32.8146 25.3428C32.9681 25.3579 33.1239 25.3657 33.282 25.3661C34.2415 25.3671 35.1772 25.0668 35.957 24.5076C36.7368 23.9483 37.3213 23.1584 37.6281 22.2491C37.9348 21.3399 37.9484 20.3573 37.6668 19.4399C37.3852 18.5226 36.8227 17.7168 36.0586 17.1363C35.9283 17.0385 35.8421 16.893 35.8191 16.7318C35.7961 16.5705 35.838 16.4067 35.9358 16.2764C36.0335 16.1461 36.179 16.06 36.3402 16.0369C36.5015 16.0139 36.6653 16.0559 36.7956 16.1536C37.7637 16.89 38.4764 17.9115 38.8335 19.0743C39.1905 20.2371 39.1738 21.4825 38.7858 22.6353C38.3978 23.7881 37.658 24.7902 36.6705 25.5004C35.683 26.2107 34.4977 26.5933 33.2813 26.5945H33.2838Z" fill="#08607C"/>
<path d="M35.1504 32.8464C35.0098 32.8465 34.8735 32.7984 34.7641 32.7102C34.6547 32.6219 34.579 32.4987 34.5494 32.3613C34.5199 32.2239 34.5384 32.0805 34.6018 31.9551C34.6652 31.8297 34.7698 31.7298 34.8979 31.6721C35.6993 31.3096 36.3793 30.7238 36.8563 29.9849C37.3334 29.246 37.5875 28.3852 37.588 27.5056C37.592 26.4825 37.2486 25.4884 36.6139 24.686C36.5172 24.5577 36.4747 24.3966 36.4953 24.2373C36.516 24.078 36.5982 23.9332 36.7245 23.8338C36.8507 23.7344 37.0108 23.6884 37.1705 23.7057C37.3302 23.723 37.4768 23.8022 37.5788 23.9262C38.122 24.6181 38.5006 25.4244 38.6861 26.2842C38.8715 27.144 38.8589 28.0348 38.6492 28.889C38.4395 29.7432 38.0381 30.5385 37.4756 31.2147C36.913 31.8909 36.204 32.4302 35.4022 32.7918C35.3231 32.8276 35.2372 32.8462 35.1504 32.8464Z" fill="#08607C"/>
<path d="M7.46014 10.1589C7.36255 10.159 7.26635 10.1358 7.17952 10.0913C7.09269 10.0467 7.01772 9.98213 6.96082 9.90284C6.43749 9.172 6.15809 8.29468 6.1624 7.3958C6.16331 6.36017 6.5333 5.35877 7.20596 4.57134C7.87862 3.7839 8.80991 3.26198 9.83267 3.09926C10.8554 2.93654 11.9027 3.14367 12.7865 3.68348C13.6704 4.22328 14.3329 5.06042 14.6551 6.04464C14.6823 6.12177 14.6937 6.20354 14.6889 6.28517C14.684 6.3668 14.6629 6.44663 14.6267 6.51998C14.5906 6.59334 14.5402 6.65873 14.4784 6.71234C14.4167 6.76595 14.3449 6.80669 14.2672 6.83217C14.1895 6.85764 14.1074 6.86735 14.0259 6.86071C13.9444 6.85407 13.8651 6.83123 13.7925 6.79351C13.72 6.7558 13.6557 6.70398 13.6034 6.64108C13.5512 6.57819 13.512 6.5055 13.4882 6.42726C13.2575 5.72002 12.7821 5.11824 12.1475 4.73005C11.5128 4.34186 10.7606 4.19272 10.0259 4.30941C9.29115 4.4261 8.62213 4.80099 8.13902 5.3667C7.6559 5.93242 7.39037 6.65188 7.39012 7.3958C7.38686 8.03789 7.58631 8.66462 7.96007 9.18672C8.02591 9.27847 8.06518 9.38661 8.07355 9.49923C8.08193 9.61185 8.05909 9.7246 8.00755 9.82509C7.956 9.92557 7.87775 10.0099 7.78139 10.0688C7.68503 10.1277 7.5743 10.1589 7.46137 10.1589H7.46014Z" fill="#08607C"/>
<path d="M2.67125 17.2596C2.54962 17.2597 2.43069 17.2237 2.32955 17.1561C2.22841 17.0885 2.14961 16.9924 2.10315 16.88C1.8271 16.2034 1.68706 15.479 1.69104 14.7482C1.68314 13.9796 1.82771 13.2171 2.11638 12.5047C2.40505 11.7923 2.83209 11.1442 3.37282 10.5979C3.91354 10.0516 4.55721 9.61788 5.2666 9.32191C5.97599 9.02593 6.73702 8.87354 7.50568 8.87354C8.27433 8.87354 9.03537 9.02593 9.74475 9.32191C10.4541 9.61788 11.0978 10.0516 11.6385 10.5979C12.1793 11.1442 12.6063 11.7923 12.895 12.5047C13.1836 13.2171 13.3282 13.9796 13.3203 14.7482C13.3203 14.9111 13.2556 15.0673 13.1404 15.1825C13.0252 15.2977 12.869 15.3624 12.7061 15.3624C12.5433 15.3624 12.387 15.2977 12.2719 15.1825C12.1567 15.0673 12.092 14.9111 12.092 14.7482C12.099 14.1415 11.9856 13.5394 11.7582 12.9768C11.5309 12.4142 11.1942 11.9023 10.7676 11.4708C10.341 11.0392 9.83307 10.6966 9.27315 10.4628C8.71322 10.229 8.11246 10.1086 7.50568 10.1086C6.89889 10.1086 6.29813 10.229 5.73821 10.4628C5.17828 10.6966 4.67032 11.0392 4.24375 11.4708C3.81717 11.9023 3.48047 12.4142 3.25313 12.9768C3.0258 13.5394 2.91236 14.1415 2.91938 14.7482C2.91519 15.3189 3.02372 15.8847 3.23875 16.4132C3.30018 16.5635 3.29965 16.7319 3.23727 16.8817C3.1749 17.0316 3.05575 17.1506 2.90587 17.2129C2.83142 17.2435 2.75174 17.2593 2.67125 17.2596Z" fill="#08607C"/>
<path d="M5.81669 26.5945C4.59906 26.596 3.41172 26.2149 2.42244 25.505C1.43316 24.7951 0.691948 23.7923 0.30352 22.6383C-0.0849082 21.4842 -0.100912 20.2374 0.257769 19.0737C0.616451 17.9101 1.33168 16.8887 2.30242 16.1536C2.43273 16.0559 2.59653 16.0139 2.75778 16.0369C2.91903 16.06 3.06452 16.1461 3.16225 16.2764C3.25999 16.4067 3.30195 16.5705 3.27892 16.7318C3.25588 16.893 3.16973 17.0385 3.03942 17.1363C2.2776 17.7179 1.71721 18.5237 1.43703 19.4404C1.15685 20.357 1.17096 21.3384 1.47737 22.2466C1.78379 23.1548 2.36711 23.9442 3.14534 24.5037C3.92357 25.0632 4.85757 25.3648 5.81607 25.3661C5.97412 25.3661 6.12991 25.3583 6.28346 25.3428C6.36371 25.3347 6.44476 25.3425 6.52199 25.3658C6.59922 25.3891 6.67111 25.4273 6.73355 25.4783C6.796 25.5294 6.84779 25.5922 6.88595 25.6633C6.92411 25.7343 6.9479 25.8122 6.95597 25.8925C6.96403 25.9727 6.95621 26.0538 6.93295 26.131C6.9097 26.2082 6.87145 26.2801 6.82041 26.3426C6.76937 26.405 6.70653 26.4568 6.63547 26.495C6.56442 26.5331 6.48654 26.5569 6.40629 26.565C6.21405 26.584 6.01629 26.5945 5.81669 26.5945Z" fill="#08607C"/>
<path d="M3.95081 32.8466C3.86395 32.8464 3.77813 32.8277 3.699 32.7919C2.89699 32.4305 2.18772 31.8914 1.62491 31.2154C1.06209 30.5393 0.660499 29.744 0.450534 28.8898C0.240569 28.0356 0.22774 27.1447 0.413019 26.2848C0.598297 25.4249 0.976825 24.6184 1.51993 23.9264C1.56914 23.8611 1.63088 23.8063 1.70153 23.7652C1.77219 23.7241 1.85034 23.6975 1.93141 23.687C2.01248 23.6765 2.09483 23.6822 2.17364 23.704C2.25245 23.7257 2.32612 23.7629 2.39035 23.8135C2.45458 23.8641 2.50806 23.927 2.54767 23.9985C2.58727 24.07 2.61221 24.1487 2.621 24.23C2.6298 24.3112 2.62228 24.3934 2.59889 24.4718C2.5755 24.5501 2.53671 24.623 2.48479 24.6861C1.85012 25.4886 1.50669 26.4827 1.51072 27.5058C1.51128 28.3853 1.7653 29.2461 2.24238 29.985C2.71947 30.724 3.3994 31.3098 4.20078 31.6723C4.32896 31.7299 4.4335 31.8298 4.49693 31.9552C4.56035 32.0807 4.57884 32.2241 4.5493 32.3615C4.51977 32.4989 4.44399 32.622 4.33462 32.7103C4.22525 32.7986 4.08891 32.8467 3.94835 32.8466H3.95081Z" fill="#08607C"/>
<path d="M25.557 42.9997C23.8015 42.9978 22.1185 42.2995 20.8772 41.0582C19.6359 39.8169 18.9376 38.1339 18.9357 36.3784V3.89994C18.9083 3.35047 18.9974 2.80142 19.1971 2.28881C19.3968 1.77619 19.7027 1.31161 20.0946 0.925521C20.5267 0.539121 21.0449 0.261644 21.606 0.116237C22.1671 -0.0291694 22.7549 -0.0382891 23.3202 0.0896388C26.0397 0.733787 28.5908 1.94957 30.8039 3.65611C30.9309 3.75832 31.0122 3.90682 31.0297 4.06894C31.0473 4.23105 30.9997 4.3935 30.8975 4.52055C30.7953 4.64761 30.6468 4.72885 30.4847 4.74642C30.3226 4.76398 30.1601 4.71643 30.0331 4.61421C27.969 3.037 25.5996 1.90614 23.0752 1.29341C22.7024 1.20467 22.3139 1.20619 21.9418 1.29785C21.5697 1.3895 21.2249 1.56864 20.936 1.82036C20.6689 2.09362 20.4622 2.41993 20.3292 2.77816C20.1962 3.1364 20.1399 3.51857 20.164 3.89994V36.3784C20.1645 37.6107 20.587 38.8058 21.3611 39.7647C22.1353 40.7236 23.2144 41.3885 24.419 41.6488C25.6236 41.9091 26.881 41.749 27.9819 41.1953C29.0829 40.6416 29.9611 39.7276 30.4704 38.6053C30.5377 38.4569 30.6613 38.3414 30.8138 38.2841C30.9664 38.2268 31.1355 38.2324 31.2838 38.2998C31.4322 38.3671 31.5478 38.4907 31.6051 38.6432C31.6624 38.7958 31.6567 38.9649 31.5894 39.1133C31.0619 40.2709 30.2129 41.2526 29.1435 41.9416C28.074 42.6306 26.8292 42.9979 25.557 42.9997Z" fill="#08607C"/>
<path d="M27.8506 31.8958H27.7996C27.6373 31.8823 27.487 31.8049 27.3817 31.6807C27.2765 31.5564 27.2249 31.3954 27.2383 31.2331C27.327 30.5933 27.2848 29.9423 27.1142 29.3193C26.9436 28.6964 26.6481 28.1147 26.2458 27.6095C25.275 26.6044 23.9798 25.9752 22.5897 25.8333C22.4272 25.8216 22.276 25.7458 22.1694 25.6226C22.0628 25.4994 22.0095 25.3389 22.0212 25.1765C22.033 25.014 22.1088 24.8628 22.232 24.7562C22.3551 24.6496 22.5156 24.5963 22.6781 24.608C24.3954 24.7739 25.9945 25.5564 27.1793 26.8104C27.689 27.4373 28.0656 28.1613 28.2862 28.9385C28.5068 29.7157 28.5667 30.5296 28.4623 31.3307C28.45 31.4845 28.3802 31.628 28.2669 31.7327C28.1535 31.8374 28.0049 31.8956 27.8506 31.8958Z" fill="#08607C"/>
<path d="M23.9313 37.2137H23.9024C23.8218 37.21 23.7428 37.1905 23.6698 37.1562C23.5967 37.122 23.5312 37.0737 23.4768 37.0141C23.4225 36.9545 23.3804 36.8848 23.353 36.8089C23.3256 36.733 23.3134 36.6525 23.3171 36.5719C23.4172 34.4088 24.828 30.3738 29.4361 30.5365C29.5167 30.5395 29.596 30.5583 29.6694 30.592C29.7427 30.6256 29.8088 30.6733 29.8637 30.7325C29.9186 30.7916 29.9614 30.861 29.9895 30.9366C30.0176 31.0123 30.0305 31.0928 30.0275 31.1734C30.0245 31.2541 30.0057 31.3333 29.9721 31.4067C29.9384 31.4801 29.8907 31.5461 29.8316 31.601C29.7724 31.656 29.703 31.6987 29.6274 31.7268C29.5517 31.7549 29.4713 31.7678 29.3906 31.7649C24.8421 31.6009 24.5541 36.4233 24.5442 36.6291C24.5367 36.7866 24.4688 36.9351 24.3547 37.044C24.2406 37.1528 24.089 37.2136 23.9313 37.2137Z" fill="#08607C"/>
<path d="M27.9645 20.0854C27.1142 20.0862 26.2741 19.8994 25.5042 19.5385C24.7342 19.1776 24.0533 18.6513 23.51 17.9972C23.456 17.9356 23.415 17.8638 23.3892 17.7861C23.3635 17.7083 23.3535 17.6262 23.3599 17.5446C23.3664 17.4629 23.3891 17.3834 23.4267 17.3107C23.4643 17.2379 23.5161 17.1734 23.579 17.121C23.6419 17.0686 23.7147 17.0293 23.793 17.0054C23.8714 16.9815 23.9537 16.9735 24.0351 16.9819C24.1166 16.9903 24.1956 17.0149 24.2674 17.0543C24.3392 17.0936 24.4024 17.1469 24.4533 17.2111C25.0541 17.9329 25.8627 18.452 26.769 18.6978C27.6754 18.9435 28.6355 18.904 29.5186 18.5845C30.4016 18.2651 31.1648 17.6812 31.7041 16.9124C32.2435 16.1437 32.5328 15.2274 32.5327 14.2883C32.5327 14.171 32.5284 14.0543 32.5198 13.9388C32.5123 13.8576 32.521 13.7757 32.5454 13.698C32.5698 13.6202 32.6095 13.548 32.6621 13.4857C32.7147 13.4234 32.7792 13.3722 32.8518 13.3351C32.9244 13.298 33.0037 13.2757 33.085 13.2696C33.1663 13.2634 33.248 13.2735 33.3253 13.2993C33.4027 13.325 33.4741 13.3659 33.5355 13.4196C33.5969 13.4732 33.647 13.5386 33.6829 13.6118C33.7188 13.685 33.7397 13.7647 33.7444 13.8461C33.7555 13.9922 33.761 14.1396 33.761 14.2883C33.7596 15.8252 33.1484 17.2988 32.0617 18.3856C30.975 19.4725 29.5015 20.0838 27.9645 20.0854Z" fill="#08607C"/>
<path d="M31.5951 23.6536H31.5828C28.5943 23.5952 27.1903 20.9678 26.8654 19.5865C26.83 19.4288 26.8582 19.2635 26.9439 19.1265C27.0295 18.9894 27.1658 18.8917 27.3231 18.8544C27.4803 18.8172 27.646 18.8434 27.784 18.9275C27.9221 19.0115 28.0214 19.1466 28.0605 19.3034C28.0912 19.4262 28.8325 22.3712 31.6067 22.4252C31.7696 22.4268 31.9252 22.493 32.0393 22.6092C32.1534 22.7255 32.2166 22.8823 32.2151 23.0452C32.2135 23.2081 32.1473 23.3637 32.0311 23.4778C31.9148 23.5919 31.758 23.6551 31.5951 23.6536Z" fill="#08607C"/>
<path d="M13.5432 42.9999C12.2714 42.9977 11.0269 42.6303 9.95786 41.9413C8.88879 41.2523 8.0401 40.2708 7.5127 39.1134C7.44535 38.965 7.4397 38.796 7.497 38.6434C7.5543 38.4909 7.66986 38.3673 7.81825 38.3C7.96664 38.2326 8.13571 38.227 8.28826 38.2843C8.44082 38.3416 8.56436 38.4571 8.63172 38.6055C9.14161 39.7267 10.0198 40.6396 11.1204 41.1925C12.221 41.7454 13.4776 41.9051 14.6815 41.6449C15.8853 41.3847 16.9639 40.7204 17.7379 39.7623C18.512 38.8043 18.9348 37.6102 18.9362 36.3786V3.90012C18.9603 3.51876 18.9041 3.13659 18.7711 2.77835C18.6381 2.42012 18.4313 2.09381 18.1642 1.82055C17.8755 1.56879 17.5308 1.38962 17.1588 1.29796C16.7868 1.20631 16.3983 1.20481 16.0257 1.2936C13.5009 1.90356 11.131 3.03308 9.06716 4.6101C8.93976 4.70149 8.78223 4.74069 8.62686 4.71968C8.47149 4.69867 8.33003 4.61903 8.23149 4.49708C8.13294 4.37513 8.08476 4.22012 8.09683 4.06379C8.10889 3.90747 8.18029 3.76168 8.29638 3.6563C10.5097 1.94966 13.061 0.733876 15.7806 0.0898267C16.3459 -0.0380493 16.9335 -0.0289025 17.4945 0.116504C18.0555 0.26191 18.5736 0.53936 19.0056 0.925709C19.3975 1.31179 19.7034 1.77638 19.9031 2.28899C20.1029 2.80161 20.192 3.35066 20.1646 3.90012V36.3786C20.1626 38.134 19.4644 39.8171 18.2231 41.0584C16.9817 42.2997 15.2987 42.9979 13.5432 42.9999Z" fill="#08607C"/>
<path d="M9.12821 33.4533C8.97378 33.4538 8.82482 33.3961 8.711 33.2917C8.59718 33.1874 8.52686 33.044 8.51404 32.8901C8.40857 32.088 8.46797 31.2728 8.68858 30.4945C8.90919 29.7162 9.28638 28.9911 9.79704 28.3636C10.9816 27.1095 12.5805 26.327 14.2977 26.1612C14.4597 26.1517 14.6191 26.2058 14.7418 26.312C14.8646 26.4182 14.941 26.5682 14.9548 26.73C14.9607 26.8104 14.9506 26.8912 14.9252 26.9678C14.8999 27.0444 14.8596 27.1152 14.8069 27.1762C14.7541 27.2372 14.6899 27.2873 14.6178 27.3235C14.5457 27.3596 14.4672 27.3813 14.3867 27.3871C12.9945 27.5324 11.6979 28.163 10.7238 29.1682C10.3236 29.6737 10.03 30.2549 9.86057 30.877C9.69116 31.499 9.64949 32.1489 9.73808 32.7875C9.7515 32.9498 9.6999 33.1108 9.59463 33.2351C9.48936 33.3594 9.33904 33.4367 9.17673 33.4502L9.12821 33.4533Z" fill="#08607C"/>
<path d="M13.0466 38.7704C12.8887 38.7706 12.7368 38.71 12.6224 38.6011C12.5081 38.4922 12.44 38.3435 12.4324 38.1857C12.422 37.98 12.1254 33.144 7.58604 33.3203C7.42316 33.3263 7.26455 33.2674 7.1451 33.1565C7.02566 33.0456 6.95518 32.8918 6.94915 32.7289C6.94312 32.566 7.00205 32.4074 7.11297 32.2879C7.22389 32.1685 7.37771 32.098 7.54059 32.092C12.1426 31.9243 13.5594 35.9643 13.6595 38.1274C13.6633 38.208 13.6511 38.2885 13.6237 38.3644C13.5963 38.4402 13.5542 38.5099 13.4998 38.5695C13.4455 38.6291 13.3799 38.6774 13.3069 38.7117C13.2339 38.746 13.1548 38.7655 13.0742 38.7692L13.0466 38.7704Z" fill="#08607C"/>
<path d="M19.5506 36.9926H19.5469C19.4662 36.9921 19.3863 36.9757 19.312 36.9444C19.2376 36.913 19.1701 36.8673 19.1134 36.8099C19.0567 36.7525 19.0119 36.6844 18.9815 36.6096C18.9512 36.5349 18.9358 36.4548 18.9364 36.3741C18.9768 35.1697 18.5898 33.9897 17.8441 33.043C17.0984 32.0963 16.0418 31.4438 14.8614 31.201C14.7014 31.1701 14.5603 31.077 14.469 30.9421C14.3777 30.8071 14.3438 30.6415 14.3747 30.4815C14.4055 30.3215 14.4987 30.1804 14.6336 30.0891C14.7685 29.9978 14.9342 29.9639 15.0942 29.9948C15.1451 30.0046 20.1985 31.0389 20.1647 36.3821C20.1637 36.5444 20.0986 36.6996 19.9835 36.814C19.8685 36.9284 19.7128 36.9926 19.5506 36.9926Z" fill="#08607C"/>
<path d="M19.5503 12.8844C19.494 12.8844 19.438 12.8766 19.3839 12.861C19.3062 12.8391 19.2337 12.8022 19.1703 12.7522C19.107 12.7023 19.0541 12.6404 19.0147 12.57C18.9753 12.4996 18.9501 12.4222 18.9407 12.342C18.9312 12.2619 18.9376 12.1808 18.9595 12.1031C19.2825 10.9559 20.5145 8.84804 22.8404 9.0802C23.0025 9.09649 23.1514 9.17649 23.2545 9.30261C23.3576 9.42874 23.4064 9.59064 23.3901 9.75271C23.3738 9.91479 23.2938 10.0638 23.1677 10.1668C23.0416 10.2699 22.8796 10.3187 22.7176 10.3024C20.8235 10.1181 20.1473 12.4133 20.1381 12.4366C20.1019 12.5649 20.0251 12.678 19.919 12.7588C19.813 12.8395 19.6836 12.8836 19.5503 12.8844Z" fill="#08607C"/>
<path d="M19.5503 15.9327C19.4169 15.9326 19.2871 15.8891 19.1806 15.8086C19.0741 15.7282 18.9967 15.6152 18.9601 15.4868C18.9325 15.3917 18.2569 13.1573 16.3806 13.3508C16.2185 13.3671 16.0565 13.3183 15.9303 13.2151C15.8041 13.112 15.7241 12.9629 15.7078 12.8008C15.6915 12.6386 15.7403 12.4766 15.8434 12.3505C15.9466 12.2243 16.0956 12.1443 16.2578 12.128C18.5916 11.8964 19.8157 14.0042 20.1387 15.1515C20.1606 15.2291 20.167 15.3103 20.1575 15.3904C20.1481 15.4705 20.1229 15.548 20.0835 15.6184C20.0441 15.6887 19.9912 15.7507 19.9278 15.8006C19.8645 15.8505 19.7919 15.8875 19.7143 15.9094C19.661 15.9247 19.6058 15.9326 19.5503 15.9327Z" fill="#08607C"/>
<path d="M12.6336 20.8192C11.0968 20.8175 9.62338 20.2064 8.5366 19.1199C7.44981 18.0333 6.83838 16.56 6.83643 15.0233C6.83643 14.874 6.84195 14.726 6.85301 14.5804C6.85778 14.499 6.87871 14.4194 6.91457 14.3462C6.95044 14.273 7.00053 14.2076 7.06192 14.154C7.12331 14.1003 7.19476 14.0594 7.27212 14.0336C7.34949 14.0079 7.4312 13.9978 7.5125 14.004C7.5938 14.0101 7.67307 14.0324 7.74567 14.0695C7.81827 14.1066 7.88275 14.1578 7.93536 14.2201C7.98796 14.2824 8.02764 14.3545 8.05207 14.4323C8.0765 14.5101 8.0852 14.592 8.07766 14.6732C8.06906 14.7886 8.06476 14.9053 8.06476 15.0233C8.06493 15.9621 8.35439 16.8782 8.89375 17.6467C9.43312 18.4152 10.1962 18.9989 11.0791 19.3182C11.962 19.6376 12.9219 19.6771 13.8281 19.4315C14.7343 19.1859 15.5428 18.667 16.1435 17.9455C16.1951 17.8835 16.2585 17.8323 16.3299 17.7948C16.4013 17.7573 16.4794 17.7342 16.5597 17.7268C16.64 17.7195 16.721 17.7281 16.798 17.7521C16.8751 17.776 16.9466 17.8149 17.0086 17.8665C17.0706 17.9182 17.1218 17.9815 17.1593 18.0529C17.1968 18.1243 17.2199 18.2024 17.2272 18.2827C17.2345 18.3631 17.226 18.444 17.202 18.5211C17.178 18.5981 17.1391 18.6696 17.0875 18.7316C16.5441 19.3855 15.8633 19.9116 15.0935 20.2724C14.3237 20.6332 13.4838 20.8199 12.6336 20.8192Z" fill="#08607C"/>
<path d="M9.00016 24.3909C8.83727 24.3924 8.68044 24.3292 8.56417 24.2151C8.44789 24.101 8.3817 23.9454 8.38015 23.7825C8.37861 23.6196 8.44183 23.4628 8.55592 23.3465C8.67 23.2303 8.8256 23.1641 8.98849 23.1625C11.7621 23.1085 12.504 20.166 12.5347 20.0407C12.5738 19.8839 12.6732 19.7488 12.8112 19.6648C12.9493 19.5807 13.1149 19.5545 13.2722 19.5917C13.4294 19.629 13.5657 19.7267 13.6514 19.8638C13.7371 20.0008 13.7653 20.1661 13.7299 20.3238C13.408 21.702 12.0004 24.3294 9.01244 24.3909H9.00016Z" fill="#08607C"/>
</svg>
