<svg width="45" height="45" viewBox="0 0 45 45" fill="none" xmlns="http://www.w3.org/2000/svg">
<g clip-path="url(#clip0_1_983)">
<path fill-rule="evenodd" clip-rule="evenodd" d="M29.0841 34.4231L31.7353 37.0744C31.9111 37.2501 32.1495 37.3489 32.3981 37.3489C32.6467 37.3489 32.8851 37.2501 33.0609 37.0744L38.3634 31.7719C38.5342 31.5951 38.6287 31.3582 38.6266 31.1124C38.6244 30.8666 38.5258 30.6315 38.352 30.4577C38.1782 30.2839 37.9431 30.1853 37.6973 30.1831C37.4514 30.181 37.2146 30.2755 37.0378 30.4463L32.3981 35.0859L30.4097 33.0975C30.2329 32.9267 29.9961 32.8322 29.7503 32.8344C29.5044 32.8365 29.2693 32.9351 29.0955 33.1089C28.9217 33.2827 28.8231 33.5179 28.8209 33.7637C28.8188 34.0095 28.9133 34.2463 29.0841 34.4231ZM12.1875 18C12.1875 17.4534 11.97 16.9284 11.5838 16.5412C11.1965 16.1549 10.672 15.9378 10.125 15.9375H8.625C8.07844 15.9375 7.55344 16.155 7.16625 16.5412C6.77993 16.9285 6.56283 17.453 6.5625 18V19.5C6.5625 20.0466 6.78 20.5716 7.16625 20.9588C7.55344 21.345 8.07844 21.5625 8.625 21.5625H10.125C10.6716 21.5625 11.1966 21.345 11.5838 20.9588C11.97 20.5716 12.1875 20.0466 12.1875 19.5V18ZM10.3125 18V19.5C10.3126 19.5246 10.3077 19.549 10.2982 19.5717C10.2887 19.5944 10.2747 19.615 10.2572 19.6322C10.24 19.6497 10.2194 19.6637 10.1967 19.6732C10.174 19.6827 10.1496 19.6876 10.125 19.6875H8.625C8.60039 19.6876 8.57602 19.6827 8.55332 19.6732C8.53062 19.6637 8.51005 19.6497 8.49281 19.6322C8.47525 19.615 8.46131 19.5944 8.45181 19.5717C8.44232 19.549 8.43745 19.5246 8.4375 19.5V18C8.4375 17.9503 8.45719 17.9025 8.49281 17.8678C8.51005 17.8503 8.53062 17.8363 8.55332 17.8268C8.57602 17.8173 8.60039 17.8124 8.625 17.8125H10.125C10.1747 17.8125 10.2225 17.8322 10.2572 17.8678C10.2747 17.8851 10.2887 17.9056 10.2982 17.9283C10.3077 17.951 10.3126 17.9754 10.3125 18ZM12.1875 25.5C12.1875 24.9534 11.97 24.4284 11.5838 24.0412C11.1965 23.6549 10.672 23.4378 10.125 23.4375H8.625C8.07844 23.4375 7.55344 23.655 7.16625 24.0412C6.77993 24.4285 6.56283 24.953 6.5625 25.5V27C6.5625 27.5466 6.78 28.0716 7.16625 28.4588C7.55344 28.845 8.07844 29.0625 8.625 29.0625H10.125C10.6716 29.0625 11.1966 28.845 11.5838 28.4588C11.97 28.0716 12.1875 27.5466 12.1875 27V25.5ZM10.3125 25.5V27C10.3126 27.0246 10.3077 27.049 10.2982 27.0717C10.2887 27.0944 10.2747 27.115 10.2572 27.1322C10.24 27.1497 10.2194 27.1637 10.1967 27.1732C10.174 27.1827 10.1496 27.1876 10.125 27.1875H8.625C8.60039 27.1876 8.57602 27.1827 8.55332 27.1732C8.53062 27.1637 8.51005 27.1497 8.49281 27.1322C8.47525 27.115 8.46131 27.0944 8.45181 27.0717C8.44232 27.049 8.43745 27.0246 8.4375 27V25.5C8.4375 25.4503 8.45719 25.4025 8.49281 25.3678C8.51005 25.3503 8.53062 25.3363 8.55332 25.3268C8.57602 25.3173 8.60039 25.3124 8.625 25.3125H10.125C10.1747 25.3125 10.2225 25.3322 10.2572 25.3678C10.2747 25.3851 10.2887 25.4056 10.2982 25.4283C10.3077 25.451 10.3126 25.4754 10.3125 25.5ZM12.1875 33C12.1875 32.4534 11.97 31.9284 11.5838 31.5413C11.1965 31.1549 10.672 30.9378 10.125 30.9375H8.625C8.07844 30.9375 7.55344 31.155 7.16625 31.5413C6.77993 31.9285 6.56283 32.453 6.5625 33V34.5C6.5625 35.0466 6.78 35.5716 7.16625 35.9587C7.55344 36.345 8.07844 36.5625 8.625 36.5625H10.125C10.6716 36.5625 11.1966 36.345 11.5838 35.9587C11.97 35.5716 12.1875 35.0466 12.1875 34.5V33ZM10.3125 33V34.5C10.3126 34.5246 10.3077 34.549 10.2982 34.5717C10.2887 34.5944 10.2747 34.615 10.2572 34.6322C10.24 34.6498 10.2194 34.6637 10.1967 34.6732C10.174 34.6827 10.1496 34.6876 10.125 34.6875H8.625C8.60039 34.6876 8.57602 34.6827 8.55332 34.6732C8.53062 34.6637 8.51005 34.6498 8.49281 34.6322C8.47525 34.615 8.46131 34.5944 8.45181 34.5717C8.44232 34.549 8.43745 34.5246 8.4375 34.5V33C8.4375 32.9503 8.45719 32.9025 8.49281 32.8678C8.51005 32.8503 8.53062 32.8363 8.55332 32.8268C8.57602 32.8173 8.60039 32.8125 8.625 32.8125H10.125C10.1747 32.8125 10.2225 32.8322 10.2572 32.8678C10.2747 32.885 10.2887 32.9056 10.2982 32.9283C10.3077 32.951 10.3126 32.9754 10.3125 33ZM19.6875 18C19.6875 17.4534 19.47 16.9284 19.0838 16.5412C18.6965 16.1549 18.172 15.9378 17.625 15.9375H16.125C15.5784 15.9375 15.0534 16.155 14.6663 16.5412C14.2799 16.9285 14.0628 17.453 14.0625 18V19.5C14.0625 20.0466 14.28 20.5716 14.6663 20.9588C15.0534 21.345 15.5784 21.5625 16.125 21.5625H17.625C18.1716 21.5625 18.6966 21.345 19.0838 20.9588C19.47 20.5716 19.6875 20.0466 19.6875 19.5V18ZM17.8125 18V19.5C17.8126 19.5246 17.8077 19.549 17.7982 19.5717C17.7887 19.5944 17.7747 19.615 17.7572 19.6322C17.74 19.6497 17.7194 19.6637 17.6967 19.6732C17.674 19.6827 17.6496 19.6876 17.625 19.6875H16.125C16.1004 19.6876 16.076 19.6827 16.0533 19.6732C16.0306 19.6637 16.0101 19.6497 15.9928 19.6322C15.9753 19.615 15.9613 19.5944 15.9518 19.5717C15.9423 19.549 15.9374 19.5246 15.9375 19.5V18C15.9375 17.9503 15.9572 17.9025 15.9928 17.8678C16.0101 17.8503 16.0306 17.8363 16.0533 17.8268C16.076 17.8173 16.1004 17.8124 16.125 17.8125H17.625C17.6747 17.8125 17.7225 17.8322 17.7572 17.8678C17.7747 17.8851 17.7887 17.9056 17.7982 17.9283C17.8077 17.951 17.8126 17.9754 17.8125 18ZM19.6875 25.5C19.6875 24.9534 19.47 24.4284 19.0838 24.0412C18.6965 23.6549 18.172 23.4378 17.625 23.4375H16.125C15.5784 23.4375 15.0534 23.655 14.6663 24.0412C14.2799 24.4285 14.0628 24.953 14.0625 25.5V27C14.0625 27.5466 14.28 28.0716 14.6663 28.4588C15.0534 28.845 15.5784 29.0625 16.125 29.0625H17.625C18.1716 29.0625 18.6966 28.845 19.0838 28.4588C19.47 28.0716 19.6875 27.5466 19.6875 27V25.5ZM17.8125 25.5V27C17.8126 27.0246 17.8077 27.049 17.7982 27.0717C17.7887 27.0944 17.7747 27.115 17.7572 27.1322C17.74 27.1497 17.7194 27.1637 17.6967 27.1732C17.674 27.1827 17.6496 27.1876 17.625 27.1875H16.125C16.1004 27.1876 16.076 27.1827 16.0533 27.1732C16.0306 27.1637 16.0101 27.1497 15.9928 27.1322C15.9753 27.115 15.9613 27.0944 15.9518 27.0717C15.9423 27.049 15.9374 27.0246 15.9375 27V25.5C15.9375 25.4503 15.9572 25.4025 15.9928 25.3678C16.0101 25.3503 16.0306 25.3363 16.0533 25.3268C16.076 25.3173 16.1004 25.3124 16.125 25.3125H17.625C17.6747 25.3125 17.7225 25.3322 17.7572 25.3678C17.7747 25.3851 17.7887 25.4056 17.7982 25.4283C17.8077 25.451 17.8126 25.4754 17.8125 25.5ZM19.6875 33C19.6875 32.4534 19.47 31.9284 19.0838 31.5413C18.6965 31.1549 18.172 30.9378 17.625 30.9375H16.125C15.5784 30.9375 15.0534 31.155 14.6663 31.5413C14.2799 31.9285 14.0628 32.453 14.0625 33V34.5C14.0625 35.0466 14.28 35.5716 14.6663 35.9587C15.0534 36.345 15.5784 36.5625 16.125 36.5625H17.625C18.1716 36.5625 18.6966 36.345 19.0838 35.9587C19.47 35.5716 19.6875 35.0466 19.6875 34.5V33ZM17.8125 33V34.5C17.8126 34.5246 17.8077 34.549 17.7982 34.5717C17.7887 34.5944 17.7747 34.615 17.7572 34.6322C17.74 34.6498 17.7194 34.6637 17.6967 34.6732C17.674 34.6827 17.6496 34.6876 17.625 34.6875H16.125C16.1004 34.6876 16.076 34.6827 16.0533 34.6732C16.0306 34.6637 16.0101 34.6498 15.9928 34.6322C15.9753 34.615 15.9613 34.5944 15.9518 34.5717C15.9423 34.549 15.9374 34.5246 15.9375 34.5V33C15.9375 32.9503 15.9572 32.9025 15.9928 32.8678C16.0101 32.8503 16.0306 32.8363 16.0533 32.8268C16.076 32.8173 16.1004 32.8125 16.125 32.8125H17.625C17.6747 32.8125 17.7225 32.8322 17.7572 32.8678C17.7747 32.885 17.7887 32.9056 17.7982 32.9283C17.8077 32.951 17.8126 32.9754 17.8125 33ZM27.1875 18C27.1875 17.4534 26.97 16.9284 26.5838 16.5412C26.1965 16.1549 25.672 15.9378 25.125 15.9375H23.625C23.0784 15.9375 22.5534 16.155 22.1663 16.5412C21.7799 16.9285 21.5628 17.453 21.5625 18V19.5C21.5625 20.0466 21.78 20.5716 22.1663 20.9588C22.5534 21.345 23.0784 21.5625 23.625 21.5625H25.125C25.6716 21.5625 26.1966 21.345 26.5838 20.9588C26.97 20.5716 27.1875 20.0466 27.1875 19.5V18ZM25.3125 18V19.5C25.3126 19.5246 25.3077 19.549 25.2982 19.5717C25.2887 19.5944 25.2748 19.615 25.2572 19.6322C25.24 19.6497 25.2194 19.6637 25.1967 19.6732C25.174 19.6827 25.1496 19.6876 25.125 19.6875H23.625C23.6004 19.6876 23.576 19.6827 23.5533 19.6732C23.5306 19.6637 23.5101 19.6497 23.4928 19.6322C23.4753 19.615 23.4613 19.5944 23.4518 19.5717C23.4423 19.549 23.4375 19.5246 23.4375 19.5V18C23.4375 17.9503 23.4572 17.9025 23.4928 17.8678C23.5101 17.8503 23.5306 17.8363 23.5533 17.8268C23.576 17.8173 23.6004 17.8124 23.625 17.8125H25.125C25.1747 17.8125 25.2225 17.8322 25.2572 17.8678C25.2748 17.8851 25.2887 17.9056 25.2982 17.9283C25.3077 17.951 25.3126 17.9754 25.3125 18ZM34.6875 18C34.6875 17.4534 34.47 16.9284 34.0838 16.5412C33.6965 16.1549 33.172 15.9378 32.625 15.9375H31.125C30.5784 15.9375 30.0534 16.155 29.6663 16.5412C29.2799 16.9285 29.0628 17.453 29.0625 18V19.5C29.0625 20.0466 29.28 20.5716 29.6663 20.9588C30.0534 21.345 30.5784 21.5625 31.125 21.5625H32.625C33.1716 21.5625 33.6966 21.345 34.0838 20.9588C34.47 20.5716 34.6875 20.0466 34.6875 19.5V18ZM32.8125 18V19.5C32.8126 19.5246 32.8077 19.549 32.7982 19.5717C32.7887 19.5944 32.7748 19.615 32.7572 19.6322C32.74 19.6497 32.7194 19.6637 32.6967 19.6732C32.674 19.6827 32.6496 19.6876 32.625 19.6875H31.125C31.1004 19.6876 31.076 19.6827 31.0533 19.6732C31.0306 19.6637 31.0101 19.6497 30.9928 19.6322C30.9753 19.615 30.9613 19.5944 30.9518 19.5717C30.9423 19.549 30.9375 19.5246 30.9375 19.5V18C30.9375 17.9503 30.9572 17.9025 30.9928 17.8678C31.0101 17.8503 31.0306 17.8363 31.0533 17.8268C31.076 17.8173 31.1004 17.8124 31.125 17.8125H32.625C32.6747 17.8125 32.7225 17.8322 32.7572 17.8678C32.7748 17.8851 32.7887 17.9056 32.7982 17.9283C32.8077 17.951 32.8126 17.9754 32.8125 18Z" fill="#06617E"/>
<path fill-rule="evenodd" clip-rule="evenodd" d="M25.7972 40.3125H5.625C4.38179 40.3123 3.18949 39.8187 2.31 38.94C1.43133 38.0605 0.93768 36.8682 0.9375 35.625V9.375C0.9375 8.1318 1.43136 6.93951 2.31044 6.06044C3.18951 5.18136 4.3818 4.6875 5.625 4.6875H8.4375V3.75C8.4375 3.00408 8.73382 2.28871 9.26126 1.76126C9.78871 1.23382 10.5041 0.9375 11.25 0.9375C11.9959 0.9375 12.7113 1.23382 13.2387 1.76126C13.7662 2.28871 14.0625 3.00408 14.0625 3.75V4.6875H27.1875V3.75C27.1875 3.00408 27.4838 2.28871 28.0113 1.76126C28.5387 1.23382 29.2541 0.9375 30 0.9375C30.7459 0.9375 31.4613 1.23382 31.9887 1.76126C32.5162 2.28871 32.8125 3.00408 32.8125 3.75V4.6875H35.625C36.8682 4.6875 38.0605 5.18136 38.9396 6.06044C39.8186 6.93951 40.3125 8.1318 40.3125 9.375V25.7972C42.6028 27.69 44.0625 30.5503 44.0625 33.75C44.0625 39.4416 39.4416 44.0625 33.75 44.0625C32.2297 44.0636 30.7281 43.7278 29.353 43.0794C27.9779 42.431 26.7636 41.4861 25.7972 40.3125ZM33.75 25.3125C38.4066 25.3125 42.1875 29.0934 42.1875 33.75C42.1875 38.4066 38.4066 42.1875 33.75 42.1875C29.0934 42.1875 25.3125 38.4066 25.3125 33.75C25.3125 29.0934 29.0934 25.3125 33.75 25.3125ZM38.4375 24.5634V14.0625H2.8125V35.625C2.8125 36.3713 3.10875 37.0866 3.63656 37.6134C3.89754 37.8748 4.20751 38.0821 4.54871 38.2235C4.88991 38.3649 5.25566 38.4376 5.625 38.4375H24.5634C23.8434 37.0313 23.4375 35.4375 23.4375 33.75C23.4375 28.0584 28.0584 23.4375 33.75 23.4375C35.4375 23.4375 37.0312 23.8434 38.4375 24.5634ZM32.8125 6.5625V7.5C32.8125 8.24592 32.5162 8.96129 31.9887 9.48874C31.4613 10.0162 30.7459 10.3125 30 10.3125C29.2541 10.3125 28.5387 10.0162 28.0113 9.48874C27.4838 8.96129 27.1875 8.24592 27.1875 7.5V6.5625H14.0625V7.5C14.0625 8.24592 13.7662 8.96129 13.2387 9.48874C12.7113 10.0162 11.9959 10.3125 11.25 10.3125C10.5041 10.3125 9.78871 10.0162 9.26126 9.48874C8.73382 8.96129 8.4375 8.24592 8.4375 7.5V6.5625H5.625C4.87908 6.5625 4.16371 6.85882 3.63626 7.38626C3.10882 7.91371 2.8125 8.62908 2.8125 9.375V12.1875H38.4375V9.375C38.4375 8.62908 38.1412 7.91371 37.6137 7.38626C37.0863 6.85882 36.3709 6.5625 35.625 6.5625H32.8125ZM30.9375 3.75V7.5C30.9375 7.74864 30.8387 7.9871 30.6629 8.16291C30.4871 8.33873 30.2486 8.4375 30 8.4375C29.7514 8.4375 29.5129 8.33873 29.3371 8.16291C29.1613 7.9871 29.0625 7.74864 29.0625 7.5V3.75C29.0625 3.50136 29.1613 3.2629 29.3371 3.08709C29.5129 2.91127 29.7514 2.8125 30 2.8125C30.2486 2.8125 30.4871 2.91127 30.6629 3.08709C30.8387 3.2629 30.9375 3.50136 30.9375 3.75ZM12.1875 3.75V7.5C12.1875 7.74864 12.0887 7.9871 11.9129 8.16291C11.7371 8.33873 11.4986 8.4375 11.25 8.4375C11.0014 8.4375 10.7629 8.33873 10.5871 8.16291C10.4113 7.9871 10.3125 7.74864 10.3125 7.5V3.75C10.3125 3.50136 10.4113 3.2629 10.5871 3.08709C10.7629 2.91127 11.0014 2.8125 11.25 2.8125C11.4986 2.8125 11.7371 2.91127 11.9129 3.08709C12.0887 3.2629 12.1875 3.50136 12.1875 3.75Z" fill="#06617E"/>
</g>
<defs>
<clipPath id="clip0_1_983">
<rect width="45" height="45" fill="white"/>
</clipPath>
</defs>
</svg>
