<svg width="20" height="20" viewBox="0 0 20 20" fill="none" xmlns="http://www.w3.org/2000/svg">
<path d="M17.7452 13.0944C17.1683 12.6429 16.2417 12.0398 15.8581 11.8425C15.0417 11.4179 13.905 11.4753 13.155 11.9796L13.1464 11.9855C12.671 12.3167 12.2305 12.6954 11.8315 13.1155L11.821 13.1265C11.7432 13.2092 11.6384 13.2614 11.5255 13.2739C11.4126 13.2864 11.299 13.2582 11.205 13.1944C10.3423 12.6067 9.5374 11.9383 8.80108 11.1984C8.06116 10.4622 7.39292 9.65745 6.80538 8.79484C6.74162 8.70111 6.71336 8.58772 6.72568 8.47503C6.73799 8.36235 6.79007 8.25774 6.87256 8.17999L6.88428 8.16827C7.30448 7.76935 7.68312 7.32881 8.01436 6.85343L8.02022 6.84484C8.52452 6.09484 8.58194 4.95812 8.15811 4.14366C7.95889 3.75851 7.35694 2.83195 6.90538 2.25499C6.4628 1.66905 5.73038 0.85968 5.41827 0.580383C4.72647 -0.0430548 3.59952 -0.18368 2.79639 0.25343L2.78662 0.258898C2.2895 0.542103 1.82342 0.876611 1.396 1.25695L1.35225 1.29601C0.520609 2.0171 0.0545939 3.10812 0.00459394 4.45304C-0.0504842 5.93312 0.390531 7.67296 1.28272 9.48429C2.196 11.3405 3.54366 13.1855 5.17998 14.8191C6.81631 16.4526 8.65928 17.8038 10.5155 18.7171C12.2265 19.5589 13.8733 19.9999 15.2983 19.9999C15.3819 19.9999 15.4648 19.9984 15.5468 19.9952C16.8917 19.9452 17.9827 19.4796 18.703 18.6476L18.7421 18.6038C19.1225 18.1764 19.457 17.7104 19.7401 17.2132L19.7456 17.2034C20.1823 16.4011 20.0425 15.2749 19.4202 14.5831C19.1405 14.2694 18.3315 13.537 17.7452 13.0944ZM18.4444 16.4894C18.2144 16.8931 17.9421 17.2711 17.6319 17.6171L17.5855 17.6687C17.1351 18.1921 16.4308 18.4749 15.4917 18.5101C14.2749 18.5546 12.7398 18.1566 11.1718 17.3847C9.46045 16.5429 7.75225 15.2929 6.23077 13.7691C4.70928 12.2452 3.45694 10.5401 2.61709 8.82804C1.84327 7.26007 1.44522 5.7257 1.48819 4.50812C1.52334 3.57062 1.80616 2.86476 2.32959 2.41437L2.38272 2.36788C2.72927 2.05776 3.10783 1.7854 3.51202 1.55538C3.771 1.41749 4.19639 1.47726 4.42764 1.68468C4.65889 1.8921 5.31827 2.6171 5.72373 3.15421L5.73272 3.16515C6.14913 3.6964 6.69092 4.53859 6.84014 4.82726C7.01319 5.15968 6.98975 5.71241 6.79053 6.01241C6.51744 6.40512 6.20444 6.76851 5.85655 7.09679L5.85108 7.10226C5.51263 7.42192 5.2992 7.85174 5.24909 8.31458C5.19898 8.77741 5.31546 9.24295 5.57764 9.62765C6.21837 10.5681 6.94689 11.4456 7.75342 12.2484C8.55611 13.055 9.43362 13.7835 10.3741 14.4241C10.759 14.6861 11.2247 14.8022 11.6876 14.7518C12.1504 14.7013 12.5801 14.4875 12.8995 14.1487L12.9058 14.1425C13.2339 13.795 13.597 13.4823 13.9894 13.2093C14.2894 13.0101 14.8421 12.9866 15.1765 13.1609C15.4632 13.3089 16.3054 13.8511 16.8366 14.2675L16.8476 14.2761C17.3862 14.6819 18.1105 15.3429 18.3171 15.5737V15.5757C18.5233 15.805 18.5823 16.2304 18.4444 16.4894Z" fill="#076280"/>
</svg>
