<svg width="35" height="33" viewBox="0 0 35 33" fill="none" xmlns="http://www.w3.org/2000/svg">
<path d="M16.8084 5.00593C16.2469 4.24861 14.9229 2.71193 12.9419 1.90995C10.9493 1.10325 8.31285 1.04882 5.1593 3.22493C3.65779 4.26087 2.61564 5.54318 2.04549 7.06182C1.4757 8.57951 1.38137 10.3223 1.75701 12.2739C1.82123 12.6088 1.60253 12.9325 1.26692 12.9974C0.931688 13.0623 0.608553 12.8433 0.543535 12.5075C0.119334 10.3036 0.249185 8.31614 0.906446 6.58863C1.56344 4.8618 2.75092 3.3854 4.45739 2.20796C7.8419 -0.126976 10.7031 -0.168412 12.9033 0.584361C15.1133 1.34048 16.6757 2.9048 17.4361 3.81035L17.5509 3.94713L17.6658 3.81037C18.4258 2.90557 19.988 1.34124 22.1979 0.584933C24.3981 -0.168029 27.2592 -0.126968 30.6437 2.20797L30.7289 2.0845L30.6437 2.20797C32.6314 3.57908 33.9106 5.33225 34.4758 7.4098C35.0415 9.48957 34.8952 11.9076 34.0072 14.6114L34.0072 14.6114C33.1905 17.1019 31.7604 19.5311 29.7528 21.8319L29.7528 21.8319C27.3054 24.6378 22.515 29.7533 17.8727 32.5798C17.7743 32.6392 17.6622 32.6695 17.5509 32.6695C17.44 32.6695 17.3288 32.6394 17.2296 32.5792C12.5871 29.752 7.79649 24.6363 5.34907 21.8312C4.33651 20.6705 3.4622 19.4664 2.75173 18.2543M16.8084 5.00593L16.6879 5.09527M16.8084 5.00593C16.8083 5.00591 16.8083 5.00589 16.8083 5.00587L16.6879 5.09527M16.8084 5.00593C16.9776 5.23382 17.2595 5.35415 17.5512 5.35415C17.843 5.35415 18.1247 5.2338 18.2935 5.00598L18.2936 5.00586C18.8554 4.24897 20.18 2.7125 22.161 1.91052C24.1537 1.10383 26.7898 1.04919 29.9418 3.22495C31.6965 4.43485 32.823 5.97072 33.3065 7.819C33.7892 9.66441 33.6271 11.8066 32.8325 14.2258C32.0651 16.5638 30.7139 18.8485 28.8202 21.0194C26.5005 23.6786 22.0134 28.483 17.6307 31.2737L17.5502 31.325L17.4696 31.2737C13.0862 28.483 8.59981 23.6786 6.27942 21.0194L6.2794 21.0194C5.31867 19.9181 4.4899 18.7773 3.81746 17.6289M16.6879 5.09527C15.5783 3.59871 11.4726 -0.949303 5.24449 3.34839C2.28517 5.39013 1.16102 8.384 1.90431 12.2456C1.98417 12.6617 1.71235 13.0641 1.2954 13.1447C0.878453 13.2253 0.476864 12.9528 0.396239 12.5358L16.6879 5.09527ZM3.81746 17.6289C3.81743 17.6289 3.8174 17.6288 3.81737 17.6288L3.94681 17.553L3.81752 17.629C3.8175 17.629 3.81748 17.629 3.81746 17.6289ZM3.81746 17.6289C3.64434 17.3348 3.26471 17.2367 2.97227 17.4082L2.97223 17.4083C2.67829 17.5806 2.57923 17.9594 2.75173 18.2543M2.75173 18.2543C2.75171 18.2543 2.75169 18.2542 2.75166 18.2542L2.62296 18.3296L2.75173 18.2543Z" fill="#08607C" stroke="#08607C" stroke-width="0.3"/>
<path d="M9.90715 7.02769L9.90444 7.02745C9.64096 7.00005 9.39033 7.15392 9.28489 7.40268L9.90715 7.02769ZM9.90715 7.02769C10.1741 7.05055 10.3957 7.24267 10.4556 7.50378L10.4557 7.50412M9.90715 7.02769L10.4557 7.50412M10.4557 7.50412L13.0242 18.5843L13.3152 18.5892M10.4557 7.50412L13.3152 18.5892M13.3152 18.5892L15.5673 10.1712L15.5673 10.1711M13.3152 18.5892L15.5673 10.1711M15.5673 10.1711C15.6404 9.89743 15.8649 9.71437 16.1729 9.71267M15.5673 10.1711L16.1729 9.71267M16.1729 9.71267C16.4544 9.71625 16.698 9.91046 16.7647 10.1853L16.1729 9.71267ZM9.50227 10.0633L7.28786 15.306L16.7647 10.1855L17.799 14.4608L17.8268 14.5755H17.9448H22.843C23.1847 14.5755 23.4608 14.8522 23.4608 15.1934C23.4608 15.5345 23.1847 15.8112 22.843 15.8112H17.3398C17.0544 15.8112 16.8066 15.6161 16.7392 15.3384L16.2716 13.4058L15.9809 13.4024L13.7134 21.8803L13.7132 21.8808C13.6424 22.15 13.3975 22.338 13.1181 22.338H13.118H13.118H13.118H13.118H13.118H13.1179H13.1179H13.1179H13.1179H13.1178H13.1178H13.1178H13.1178H13.1178H13.1177H13.1177H13.1177H13.1177H13.1176H13.1176H13.1176H13.1176H13.1175H13.1175H13.1175H13.1175H13.1175H13.1174H13.1174H13.1174H13.1174H13.1173H13.1173H13.1173H13.1173H13.1173H13.1172H13.1172H13.1172H13.1172H13.1171H13.1171H13.1171H13.1171H13.117H13.117H13.117H13.117H13.1169H13.1169H13.1169H13.1169H13.1169H13.1168H13.1168H13.1168H13.1168H13.1167H13.1167H13.1167H13.1167H13.1166H13.1166H13.1166H13.1166H13.1166H13.1165H13.1165H13.1165H13.1165H13.1164H13.1164H13.1164H13.1164H13.1163H13.1163H13.1163H13.1163H13.1162H13.1162H13.1162H13.1162H13.1161H13.1161H13.1161H13.1161H13.1161H13.116H13.116H13.116H13.116H13.1159H13.1159H13.1159H13.1159H13.1158H13.1158H13.1158H13.1158H13.1157H13.1157H13.1157H13.1157H13.1156H13.1156H13.1156H13.1156H13.1155H13.1155H13.1155H13.1155H13.1155H13.1154H13.1154H13.1154H13.1154H13.1153H13.1153H13.1153H13.1153H13.1152H13.1152H13.1152H13.1152H13.1151H13.1151H13.1151H13.1151H13.115H13.115H13.115H13.115H13.1149H13.1149H13.1149H13.1149H13.1148H13.1148H13.1148H13.1148H13.1147H13.1147H13.1147H13.1147H13.1146H13.1146H13.1146H13.1146H13.1145H13.1145H13.1145H13.1145H13.1144H13.1144H13.1144H13.1144H13.1143H13.1143H13.1143H13.1143H13.1142H13.1142H13.1142H13.1142H13.1141H13.1141H13.1141H13.1141H13.114H13.114H13.114H13.114H13.1139H13.1139H13.1139H13.1139H13.1138H13.1138H13.1138H13.1138H13.1137H13.1137H13.1137H13.1137H13.1136H13.1136H13.1136H13.1136H13.1135H13.1135H13.1135H13.1135H13.1134H13.1134H13.1134H13.1134H13.1133H13.1133H13.1133H13.1133H13.1132H13.1132H13.1132H13.1132H13.1131H13.1131H13.1131H13.1131H13.113H13.113H13.113H13.113H13.1129H13.1129H13.1129H13.1129H13.1128H13.1128H13.1128H13.1128H13.1127H13.1127H13.1127H13.1127H13.1126H13.1126H13.1126H13.1126H13.1125H13.1125H13.1125H13.1125H13.1124H13.1124H13.1124H13.1123H13.1123H13.1123H13.1123H13.1122H13.1122H13.1122H13.1122H13.1121H13.1121H13.1121H13.1121H13.112H13.112H13.112H13.112H13.1119H13.1119H13.1119H13.1119H13.1118H13.1118H13.1118H13.1118H13.1117H13.1117H13.1117H13.1117H13.1116H13.1116H13.1116H13.1115H13.1115H13.1115H13.1115H13.1114H13.1114H13.1114H13.1114H13.1113H13.1113H13.1113H13.1113H13.1112H13.1112H13.1112H13.1112H13.1111H13.1111H13.1111H13.1111H13.111H13.111H13.111H13.1109H13.1109H13.1109H13.1109H13.1108H13.1108H13.1108H13.1108H13.1107H13.1107H13.1107H13.1107H13.1106H13.1106H13.1106H13.1106H13.1105H13.1105H13.1105H13.1105H13.1104H13.1104H13.1104H13.1103H13.1103H13.1103H13.1103H13.1102H13.1102H13.1102H13.1102H13.1101H13.1101H13.1101H13.1101H13.11H13.11H13.11H13.11H13.1099H13.1099H13.1099H13.1098H13.1098H13.1098H13.1098H13.1097H13.1097H13.1097H13.1097H13.1096H13.1096H13.1096H13.1096H13.1095H13.1095H13.1095H13.1094H13.1094H13.1094H13.1094H13.1093H13.1093H13.1093H13.1093H13.1092H13.1092H13.1092H13.1092H13.1091H13.1091H13.1091H13.109H13.109H13.109H13.109H13.1089H13.1089H13.1089H13.1089H13.1088H13.1088H13.1088H13.1088H13.1087H13.1087H13.1087H13.1087H13.1086H13.1086H13.1086H13.1085H13.1085H13.1085H13.1085H13.1084H13.1084H13.1084H13.1084H13.1083H13.1083H13.1083H13.1082H13.1082H13.1082H13.1082H13.1081H13.1081H13.1081H13.1081H13.108H13.108H13.108H13.108H13.1079H13.1079H13.1079H13.1078H13.1078H13.1078H13.1078H13.1077H13.1077H13.1077H13.1077H13.1076H13.1076H13.1076H13.1076H13.1075H13.1075H13.1075H13.1074H13.1074H13.1074H13.1074H13.1073H13.1073H13.1073H13.1073H13.1072H13.1072H13.1072H13.1071H13.1071H13.1071H13.1071H13.107H13.107H13.107H13.107H13.1069H13.1069H13.1069H13.1069H13.1068H13.1068H13.1068H13.1067H13.1067H13.1067H13.1067H13.1066H13.1066H13.1066H13.1066H13.1065H13.1065H13.1065H13.1064H13.1064H13.1064C12.8232 22.3325 12.5797 22.1355 12.5155 21.8597L9.78657 10.0878L9.68216 9.63739L9.50227 10.0633ZM7.28777 15.3062C7.19057 15.535 6.96612 15.6838 6.71875 15.6838H0.767857C0.426843 15.6838 0.15 15.4069 0.15 15.0659C0.15 14.7249 0.426843 14.448 0.767857 14.448H6.20966H6.30914L6.34784 14.3564L9.28484 7.40282L7.28777 15.3062Z" fill="#08607C" stroke="#08607C" stroke-width="0.3"/>
</svg>
