<svg width="45" height="45" viewBox="0 0 45 45" fill="none" xmlns="http://www.w3.org/2000/svg">
<g clip-path="url(#clip0_1_963)">
<path d="M3.94819 39.9915C3.75804 40.5637 3.70651 41.1729 3.79783 41.7689C3.88915 42.365 4.12072 42.9308 4.47348 43.4198C4.82623 43.9089 5.29008 44.3071 5.82685 44.5819C6.36362 44.8566 6.95795 44.9999 7.56094 45H37.4394C38.0423 44.9998 38.6366 44.8565 39.1733 44.5819C39.71 44.3072 40.1738 43.909 40.5265 43.42C40.8792 42.9311 41.1108 42.3654 41.2022 41.7695C41.2936 41.1735 41.2422 40.5644 41.0522 39.9923L38.2397 31.5525C38.042 30.9758 37.8014 30.4147 37.5197 29.874L37.7244 29.0955C37.8127 28.7599 37.8227 28.4084 37.7538 28.0683C37.6849 27.7282 37.5389 27.4084 37.327 27.1335C37.1151 26.8587 36.843 26.6361 36.5316 26.4829C36.2201 26.3298 35.8777 26.2501 35.5307 26.25H34.6959C32.4863 24.3173 29.6508 23.2514 26.7152 23.25H26.2502V22.707C27.6027 21.9985 28.7502 20.954 29.5824 19.674C30.0122 18.735 30.2856 17.732 30.3917 16.7048C30.9263 16.5534 31.397 16.2318 31.7323 15.7888C32.0677 15.3459 32.2495 14.8056 32.2502 14.25V9.75C32.2502 7.16414 31.223 4.68419 29.3945 2.85571C27.566 1.02723 25.0861 0 22.5002 0C19.9143 0 17.4344 1.02723 15.6059 2.85571C13.7774 4.68419 12.7502 7.16414 12.7502 9.75V14.25C12.7509 14.8056 12.9327 15.3459 13.2681 15.7888C13.6034 16.2318 14.0741 16.5534 14.6087 16.7048C14.7147 17.7321 14.9884 18.7351 15.4187 19.674C16.2506 20.954 17.3979 21.9985 18.7502 22.707V23.25H18.2852C15.3496 23.2514 12.5141 24.3173 10.3044 26.25H9.46969C9.12258 26.25 8.78009 26.3296 8.46858 26.4827C8.15707 26.6358 7.88485 26.8584 7.67287 27.1332C7.46089 27.4081 7.3148 27.7279 7.24586 28.0681C7.17691 28.4083 7.18695 28.7598 7.27519 29.0955L7.48069 29.8748C7.19845 30.4159 6.95727 30.9775 6.75919 31.5548L3.94819 39.9915ZM10.5002 43.5V42H34.5002V43.5H10.5002ZM39.6302 40.4678C39.7447 40.8145 39.7753 41.1834 39.7195 41.5442C39.6637 41.905 39.5231 42.2475 39.3093 42.5434C39.0955 42.8394 38.8145 43.0804 38.4895 43.2467C38.1644 43.413 37.8046 43.4998 37.4394 43.5H36.0002V42C35.9988 41.6408 35.8684 41.294 35.6329 41.0227C35.3974 40.7514 35.0724 40.5737 34.7169 40.5218L36.8919 32.2537L39.6302 40.4678ZM32.1534 26.25H25.4784C25.8194 25.8084 26.0565 25.2957 26.1722 24.75H26.7129C28.6285 24.7508 30.5082 25.269 32.1534 26.25ZM22.5002 1.5C24.6874 1.50258 26.7844 2.3726 28.331 3.91922C29.8776 5.46584 30.7476 7.56276 30.7502 9.75V11.925C30.6324 11.8705 30.5106 11.8253 30.3857 11.79C30.2511 11.0878 29.8939 10.4477 29.3671 9.96438C28.8403 9.48105 28.1718 9.18024 27.4607 9.1065C25.9681 8.90773 24.5485 8.34069 23.3297 7.4565C23.0864 7.28922 22.7981 7.19967 22.5028 7.19967C22.2076 7.19967 21.9192 7.28922 21.6759 7.4565C20.4691 8.34755 19.0546 8.9155 17.5667 9.1065C16.8495 9.17224 16.1733 9.47001 15.6406 9.95467C15.1079 10.4393 14.7477 11.0845 14.6147 11.7922C14.4906 11.8273 14.3694 11.8722 14.2524 11.9265V9.75C14.255 7.56315 15.1247 5.46656 16.6709 3.92001C18.217 2.37346 20.3133 1.50318 22.5002 1.5ZM16.7567 18.996C16.351 18.0494 16.1117 17.0398 16.0494 16.0118C16.0396 15.8195 15.9563 15.6385 15.8167 15.506C15.6771 15.3735 15.4919 15.2997 15.2994 15.3C15.021 15.3 14.7539 15.1894 14.557 14.9925C14.3601 14.7955 14.2494 14.5285 14.2494 14.25C14.2494 13.9715 14.3601 13.7045 14.557 13.5075C14.7539 13.3106 15.021 13.2 15.2994 13.2C15.4984 13.2 15.6891 13.121 15.8298 12.9803C15.9704 12.8397 16.0494 12.6489 16.0494 12.45C16.0478 11.9927 16.2155 11.551 16.5201 11.2099C16.8248 10.8688 17.2449 10.6526 17.6994 10.6027C19.4277 10.3872 21.0711 9.72954 22.4709 8.69325C23.9009 9.73025 25.5704 10.388 27.3234 10.605C27.7752 10.6559 28.1918 10.873 28.4924 11.214C28.7931 11.5549 28.9562 11.9955 28.9502 12.45C28.9502 12.6489 29.0292 12.8397 29.1699 12.9803C29.3105 13.121 29.5013 13.2 29.7002 13.2C29.9787 13.2 30.2457 13.3106 30.4427 13.5075C30.6396 13.7045 30.7502 13.9715 30.7502 14.25C30.7502 14.5285 30.6396 14.7955 30.4427 14.9925C30.2457 15.1894 29.9787 15.3 29.7002 15.3C29.5077 15.2997 29.3225 15.3735 29.1829 15.506C29.0433 15.6385 28.96 15.8195 28.9502 16.0118C28.888 17.0397 28.649 18.0492 28.2437 18.996C27.5139 20.4367 24.1314 22.5 22.5002 22.5C20.8689 22.5 17.4864 20.4367 16.7567 18.996ZM22.5002 24C23.2776 23.9596 24.0407 23.7744 24.7502 23.454V24C24.7502 24.5967 24.5131 25.169 24.0912 25.591C23.6692 26.0129 23.0969 26.25 22.5002 26.25C21.9035 26.25 21.3312 26.0129 20.9092 25.591C20.4872 25.169 20.2502 24.5967 20.2502 24V23.454C20.9597 23.7744 21.7228 23.9596 22.5002 24ZM18.2852 24.75H18.8252C18.9409 25.2957 19.178 25.8084 19.5189 26.25H12.8439C14.4894 25.2689 16.3694 24.7506 18.2852 24.75ZM8.86069 28.05C8.9323 27.9565 9.0245 27.8809 9.13013 27.8288C9.23575 27.7768 9.35195 27.7498 9.46969 27.75H35.5307C35.6482 27.7499 35.7642 27.7768 35.8696 27.8286C35.9751 27.8804 36.0673 27.9557 36.1391 28.0488C36.2109 28.1418 36.2604 28.25 36.2838 28.3652C36.3071 28.4804 36.3038 28.5993 36.2739 28.713L33.1719 40.5H11.8284L8.72644 28.713C8.69638 28.5996 8.69285 28.4808 8.71613 28.3658C8.73941 28.2508 8.78888 28.1428 8.86069 28.05ZM10.2857 40.5225C9.92994 40.5739 9.60447 40.7513 9.36854 41.0225C9.1326 41.2937 9.00189 41.6406 9.00019 42V43.5H7.56094C7.19574 43.4998 6.83579 43.413 6.51066 43.2467C6.18554 43.0803 5.90451 42.8393 5.69067 42.5432C5.47684 42.2472 5.33629 41.9046 5.28057 41.5437C5.22486 41.1827 5.25557 40.8138 5.37019 40.467L8.10694 32.2537L10.2857 40.5225Z" fill="#06617E"/>
<path d="M22.5 38.25C24.5677 38.25 26.25 36.9045 26.25 35.25C26.25 33.5955 24.5677 32.25 22.5 32.25C20.4322 32.25 18.75 33.5955 18.75 35.25C18.75 36.9045 20.4322 38.25 22.5 38.25ZM22.5 33.75C23.7195 33.75 24.75 34.437 24.75 35.25C24.75 36.063 23.7195 36.75 22.5 36.75C21.2805 36.75 20.25 36.063 20.25 35.25C20.25 34.437 21.2805 33.75 22.5 33.75Z" fill="#06617E"/>
</g>
<defs>
<clipPath id="clip0_1_963">
<rect width="45" height="45" fill="white"/>
</clipPath>
</defs>
</svg>
