<svg width="20" height="21" viewBox="0 0 20 21" fill="none" xmlns="http://www.w3.org/2000/svg">
<path d="M2.92969 20.4443H9.45312V13.335H7.10938V10.9912H9.45312V8.06152C9.45312 6.44609 10.7674 5.13184 12.3828 5.13184H15.3125V7.47559H12.9688C12.3225 7.47559 11.7969 8.00125 11.7969 8.64746V10.9912H15.2068L14.8161 13.335H11.7969V20.4443H17.0703C18.6857 20.4443 20 19.1301 20 17.5146V3.37402C20 1.75859 18.6857 0.444336 17.0703 0.444336H2.92969C1.31426 0.444336 0 1.75859 0 3.37402V17.5146C0 19.1301 1.31426 20.4443 2.92969 20.4443ZM1.17188 3.37402C1.17188 2.40477 1.96047 1.61621 2.92969 1.61621H17.0703C18.0396 1.61621 18.8281 2.4048 18.8281 3.37402V17.5146C18.8281 18.4839 18.0395 19.2725 17.0703 19.2725H12.9688V14.5068H15.8089L16.5901 9.81934H12.9688V8.64746H16.4844V3.95996H12.3828C10.1212 3.95996 8.28125 5.79988 8.28125 8.06152V9.81934H5.9375V14.5068H8.28125V19.2725H2.92969C1.96043 19.2725 1.17188 18.4839 1.17188 17.5146V3.37402Z" fill="#076280"/>
</svg>
