<svg width="43" height="43" viewBox="0 0 43 43" fill="none" xmlns="http://www.w3.org/2000/svg">
<path d="M38.5774 2.78324C35.7105 1.19594 32.5689 2.28068 30.4699 3.90124C27.6713 2.54436 24.6102 1.81485 21.5004 1.76367C18.3906 1.81479 15.3295 2.5443 12.5309 3.90124C10.4316 2.28102 7.29023 1.19527 4.42334 2.78324C3.44531 3.29404 2.66579 4.11673 2.2084 5.12085C1.75101 6.12497 1.64192 7.25305 1.89844 8.32621C2.27677 9.76839 3.00169 11.0963 4.01014 12.1945C3.9799 12.8371 4.08864 13.4787 4.32895 14.0754C4.56925 14.6722 4.93547 15.21 5.4026 15.6523C6.11233 16.3836 7.03885 16.8666 8.04475 17.0297C8.21645 17.0542 8.38966 17.0667 8.5631 17.067C8.93818 17.076 9.31128 17.01 9.66044 16.8726C10.0096 16.7353 10.3278 16.5296 10.5962 16.2674C11.8583 15.0057 11.5822 12.6756 9.98076 11.0742C8.84529 9.93871 7.34566 9.47344 6.11747 9.74622C5.59596 9.12249 5.21692 8.3924 5.00687 7.60697C4.90637 7.20938 4.94752 6.78921 5.12322 6.41867C5.29893 6.04813 5.59822 5.75036 5.96966 5.57656C7.20423 4.89226 9.31325 5.06896 11.2405 7.00329C11.3234 7.08615 11.4056 7.16767 11.4871 7.24785C12.0638 7.8132 12.5221 8.48776 12.8352 9.23216C13.1483 9.97656 13.3101 10.7759 13.3109 11.5835C13.2937 12.8722 13.1015 14.1526 12.7398 15.3896C11.3269 20.3763 12.545 22.622 14.0873 25.4651C15.6887 28.4203 17.6868 32.1032 17.6868 40.6484C17.6868 40.8044 17.7488 40.9539 17.859 41.0641C17.9693 41.1744 18.1188 41.2363 18.2747 41.2363C18.4306 41.2363 18.5802 41.1744 18.6904 41.0641C18.8007 40.9539 18.8626 40.8044 18.8626 40.6484C18.8626 31.8049 16.7872 27.9782 15.1193 24.9034C13.5944 22.0926 12.5873 20.2339 13.8696 15.7091C14.2611 14.3693 14.4687 12.9825 14.4867 11.5868C14.4861 10.6222 14.2933 9.66743 13.9197 8.77814C13.546 7.88886 12.999 7.08291 12.3105 6.40734C12.2315 6.33041 12.1529 6.2518 12.0733 6.17218C9.71402 3.80382 7.02115 3.64862 5.39991 4.54658C4.80546 4.84556 4.32982 5.33711 4.05053 5.94107C3.77124 6.54503 3.70478 7.22579 3.86199 7.87236C4.08448 8.73455 4.48057 9.54227 5.02601 10.2461C4.94219 10.3112 4.86243 10.3813 4.78716 10.4561C4.6608 10.5839 4.54821 10.7246 4.45122 10.876C3.7885 10.0482 3.30886 9.08927 3.04398 8.0625C2.84915 7.23848 2.93503 6.37299 3.288 5.60333C3.64098 4.83366 4.24083 4.20389 4.99242 3.8139C7.48104 2.43655 10.2841 3.54716 12.0777 5.04645C12.1655 5.11996 12.2729 5.16616 12.3867 5.17935C12.5005 5.19254 12.6156 5.17215 12.718 5.1207C15.4438 3.74135 18.446 2.9957 21.5004 2.93945C24.5545 2.99523 27.5566 3.7403 30.2825 5.11902C30.3848 5.17047 30.4999 5.19086 30.6137 5.17767C30.7275 5.16448 30.8349 5.11828 30.9228 5.04477C32.717 3.54582 35.5194 2.4342 38.008 3.81222C38.76 4.20219 39.3602 4.83222 39.7132 5.60227C40.0662 6.37232 40.1518 7.23823 39.9565 8.0625C39.6918 9.09053 39.2117 10.0506 38.5479 10.879C38.4514 10.7277 38.3394 10.587 38.2136 10.4591C38.1383 10.3844 38.0585 10.3143 37.9748 10.2491C38.5205 9.5446 38.9166 8.73605 39.1388 7.87303C39.2959 7.22646 39.2294 6.54572 38.9502 5.94178C38.6709 5.33783 38.1953 4.84628 37.6009 4.54725C35.98 3.64963 33.2874 3.80449 30.9268 6.17285C30.8478 6.25247 30.7692 6.33108 30.6916 6.40801C30.0032 7.08351 29.4562 7.88941 29.0826 8.77864C28.709 9.66788 28.5163 10.6226 28.5158 11.5872C28.5338 12.983 28.7414 14.3699 29.1329 15.7098C30.4152 20.2355 29.408 22.0926 27.8832 24.9037C26.2136 27.9782 24.1382 31.8049 24.1382 40.6484C24.1382 40.8044 24.2001 40.9539 24.3104 41.0641C24.4206 41.1744 24.5701 41.2363 24.7261 41.2363C24.882 41.2363 25.0315 41.1744 25.1418 41.0641C25.252 40.9539 25.314 40.8044 25.314 40.6484C25.314 32.1032 27.3108 28.4203 28.9149 25.4641C30.4572 22.621 31.6753 20.3753 30.2623 15.389C29.9006 14.1518 29.7085 12.8713 29.6912 11.5825C29.6923 10.7752 29.8541 9.97631 30.1672 9.23228C30.4802 8.48825 30.9383 7.814 31.5147 7.24886C31.5967 7.16868 31.6788 7.08705 31.7613 7.00396C33.6889 5.0693 35.7976 4.89259 37.0325 5.57723C37.4038 5.75115 37.7029 6.04896 37.8785 6.41949C38.0541 6.79002 38.0951 7.21013 37.9946 7.60764C37.7844 8.39291 37.4054 9.12285 36.884 9.74655C35.6561 9.47377 34.1562 9.93905 33.0207 11.0745C31.4193 12.6759 31.1431 15.005 32.4053 16.2678C32.6737 16.5299 32.9918 16.7357 33.341 16.873C33.6902 17.0103 34.0633 17.0764 34.4384 17.0673C34.6118 17.067 34.785 17.0545 34.9567 17.03C35.9626 16.8669 36.8891 16.3839 37.5989 15.6527C38.0659 15.2103 38.432 14.6723 38.6722 14.0755C38.9124 13.4787 39.021 12.8371 38.9906 12.1945C39.9988 11.0969 40.7237 9.76969 41.1023 8.32823C41.3594 7.25478 41.2505 6.12624 40.7931 5.12169C40.3357 4.11715 39.5559 3.29413 38.5774 2.78324ZM9.14931 11.9039C10.273 13.028 10.5549 14.6449 9.76475 15.4346C8.96119 16.2382 7.37724 15.9627 6.23405 14.8192C5.11033 13.6955 4.82848 12.0786 5.61861 11.2885C5.77997 11.135 5.97034 11.0152 6.17859 10.9362C6.38683 10.8571 6.60875 10.8204 6.83134 10.8283C7.71388 10.8742 8.54447 11.2596 9.14931 11.9039ZM36.7667 14.8192C35.6245 15.9614 34.0389 16.2379 33.236 15.4346C32.4459 14.6449 32.7278 13.028 33.8515 11.9039C34.9937 10.7618 36.5786 10.4849 37.3822 11.2885C38.1723 12.0786 37.8904 13.6955 36.7667 14.8192Z" fill="#08607C"/>
<path d="M26.8821 16.1871C26.1212 12.727 26.5569 10.3247 27.0558 8.92078C27.1412 8.67933 27.1666 8.42076 27.1301 8.16728C27.0935 7.9138 26.996 7.67298 26.8458 7.4655C26.6954 7.25955 26.4982 7.09238 26.2703 6.97782C26.0425 6.86327 25.7907 6.80462 25.5357 6.80673C25.3408 6.8115 25.1459 6.80027 24.9528 6.77314C24.5405 6.7042 24.138 6.58565 23.7542 6.42007C23.0447 6.10401 22.2767 5.94067 21.5001 5.94067C20.7234 5.94067 19.9554 6.10401 19.2459 6.42007C18.8621 6.58565 18.4596 6.7042 18.0473 6.77314C17.8541 6.80004 17.6591 6.81127 17.4641 6.80673C17.209 6.80409 16.957 6.86251 16.7291 6.97711C16.5012 7.09171 16.304 7.25917 16.1539 7.4655C16.0038 7.67298 15.9063 7.9138 15.8697 8.16728C15.8331 8.42076 15.8586 8.67933 15.944 8.92078C16.4429 10.3247 16.8786 12.7253 16.1177 16.1871C15.3013 19.9029 15.9739 21.4728 16.9048 23.6449C18.0715 26.366 19.6689 30.0949 19.6689 40.6481C19.6689 40.804 19.7308 40.9535 19.8411 41.0638C19.9513 41.174 20.1008 41.236 20.2568 41.236C20.4127 41.236 20.5622 41.174 20.6725 41.0638C20.7827 40.9535 20.8446 40.804 20.8446 40.6481C20.8446 29.8537 19.1922 25.9975 17.9855 23.182C17.0801 21.0632 16.5322 19.7867 17.2679 16.4394C18.0886 12.7055 17.6039 10.0757 17.0536 8.52707C17.0319 8.4648 17.0256 8.39817 17.0355 8.33296C17.0453 8.26775 17.0709 8.20592 17.11 8.15283C17.1466 8.10058 17.1951 8.05783 17.2516 8.02814C17.308 7.99846 17.3708 7.9827 17.4345 7.98217H17.4426C17.701 7.98783 17.9593 7.97266 18.2153 7.93682C18.7163 7.85643 19.2057 7.71531 19.6726 7.51657C20.2464 7.25273 20.8705 7.11613 21.5021 7.11613C22.1336 7.11613 22.7578 7.25273 23.3316 7.51657C23.7985 7.71531 24.2879 7.85643 24.7889 7.93682C25.0448 7.97265 25.3032 7.98782 25.5615 7.98217H25.5656C25.6294 7.98273 25.6922 7.9985 25.7487 8.02818C25.8052 8.05786 25.8538 8.10059 25.8904 8.15283C25.9296 8.20592 25.9552 8.26775 25.965 8.33296C25.9748 8.39817 25.9686 8.4648 25.9469 8.52707C25.3963 10.0757 24.9118 12.7055 25.7325 16.4394C26.4679 19.7863 25.92 21.0646 25.013 23.1823C23.8063 25.9978 22.1538 29.8541 22.1538 40.6484C22.1538 40.8043 22.2157 40.9538 22.326 41.0641C22.4362 41.1744 22.5858 41.2363 22.7417 41.2363C22.8976 41.2363 23.0471 41.1744 23.1574 41.0641C23.2676 40.9538 23.3296 40.8043 23.3296 40.6484C23.3296 30.0953 24.927 26.3674 26.0937 23.6453C27.0259 21.4728 27.6984 19.9029 26.8821 16.1871Z" fill="#08607C"/>
</svg>
