<svg width="58" height="51" viewBox="0 0 58 51" fill="none" xmlns="http://www.w3.org/2000/svg">
<path d="M34.2328 41.36C33.3524 43.0441 32.8763 44.935 32.8763 46.8818V49.9995H25.5188V46.8818C25.5188 43.3104 23.9171 39.9273 21.1546 37.6638C18.5119 35.4983 18.3475 31.5131 20.803 29.1373H20.8031C22.6195 27.38 22.8961 24.5657 21.4565 22.4884L18.5501 18.2941C14.0436 11.7908 18.698 2.90295 26.61 2.90295H31.7849C39.6969 2.90295 44.3513 11.7908 39.845 18.2941L36.9385 22.4884C35.4989 24.5658 35.7756 27.38 37.592 29.1375C37.7825 29.3218 37.9573 29.5159 38.1164 29.7181" stroke="#08607C" stroke-width="1.5" stroke-miterlimit="10"/>
<path d="M29.1981 32.1499V25.3317C29.1981 23.021 28.5615 20.7428 27.2936 18.8113C27.2384 18.7273 27.1822 18.6438 27.1249 18.5611L24.2184 14.3668C23.3455 13.1072 23.7272 11.9415 24.0323 11.3588C24.3375 10.7761 25.0783 9.79858 26.6107 9.79858H31.7856C33.318 9.79858 34.0587 10.7761 34.3639 11.3588C34.6691 11.9415 35.0507 13.1072 34.1778 14.3668L31.2714 18.5611C31.2139 18.6439 31.1576 18.7275 31.1024 18.8115C29.8346 20.7432 29.1981 23.0211 29.1981 25.3316V32.1499Z" stroke="#08607C" stroke-width="1.5" stroke-miterlimit="10"/>
<path d="M4.0406 12.3163L2.25718 9.27848C0.720629 6.66117 1.59682 3.29374 4.21413 1.75718C6.83145 0.220629 10.1989 1.09682 11.7354 3.71413L12.3049 4.6841C13.4252 6.59244 15.4725 7.76457 17.6854 7.76457" stroke="#08607C" stroke-width="1.5" stroke-miterlimit="10"/>
<path d="M6.28488 19.5954C8.34771 19.5954 10.02 17.9231 10.02 15.8603C10.02 13.7975 8.34771 12.1252 6.28488 12.1252C4.22206 12.1252 2.5498 13.7975 2.5498 15.8603C2.5498 17.9231 4.22206 19.5954 6.28488 19.5954Z" stroke="#08607C" stroke-width="1.5" stroke-miterlimit="10"/>
<path d="M52.1091 19.5954C54.1719 19.5954 55.8442 17.9231 55.8442 15.8603C55.8442 13.7975 54.1719 12.1252 52.1091 12.1252C50.0463 12.1252 48.374 13.7975 48.374 15.8603C48.374 17.9231 50.0463 19.5954 52.1091 19.5954Z" stroke="#08607C" stroke-width="1.5" stroke-miterlimit="10"/>
<path d="M54.3537 12.3163L56.1372 9.27848C57.6737 6.66117 56.7975 3.29374 54.1802 1.75718C51.5629 0.220629 48.1955 1.09682 46.6589 3.71413L46.0895 4.6841C44.9692 6.59244 42.9219 7.76457 40.709 7.76457" stroke="#08607C" stroke-width="1.5" stroke-miterlimit="10"/>
</svg>
