<svg width="20" height="21" viewBox="0 0 20 21" fill="none" xmlns="http://www.w3.org/2000/svg">
<g clip-path="url(#clip0_84_853)">
<path d="M14.9996 0.444336H4.99988C2.25019 0.444336 0 2.69453 0 5.44421V15.4445C0 18.1934 2.25019 20.4443 4.99988 20.4443H14.9996C17.7493 20.4443 19.9995 18.1934 19.9995 15.4445V5.44421C19.9995 2.69453 17.7493 0.444336 14.9996 0.444336ZM18.3328 15.4445C18.3328 17.2819 16.8381 18.7776 14.9996 18.7776H4.99988C3.16218 18.7776 1.66671 17.2819 1.66671 15.4445V5.44421C1.66671 3.60627 3.16218 2.11104 4.99988 2.11104H14.9996C16.8381 2.11104 18.3328 3.60627 18.3328 5.44421V15.4445Z" fill="#076280"/>
<path d="M15.417 6.27728C16.1073 6.27728 16.6669 5.71765 16.6669 5.02731C16.6669 4.33697 16.1073 3.77734 15.417 3.77734C14.7266 3.77734 14.167 4.33697 14.167 5.02731C14.167 5.71765 14.7266 6.27728 15.417 6.27728Z" fill="#076280"/>
<path d="M9.99988 5.44434C7.23793 5.44434 5 7.68251 5 10.4442C5 13.2049 7.23793 15.4446 9.99988 15.4446C12.761 15.4446 14.9998 13.2049 14.9998 10.4442C14.9998 7.68251 12.761 5.44434 9.99988 5.44434ZM9.99988 13.7779C8.15915 13.7779 6.66671 12.2854 6.66671 10.4442C6.66671 8.603 8.15915 7.11104 9.99988 7.11104C11.8406 7.11104 13.333 8.603 13.333 10.4442C13.333 12.2854 11.8406 13.7779 9.99988 13.7779Z" fill="#076280"/>
</g>
<defs>
<clipPath id="clip0_84_853">
<rect width="20" height="20" fill="white" transform="translate(0 0.444336)"/>
</clipPath>
</defs>
</svg>
