<svg width="20" height="21" viewBox="0 0 20 21" fill="none" xmlns="http://www.w3.org/2000/svg">
<g clip-path="url(#clip0_84_861)">
<path d="M0.305195 20.3641H5.48375V6.74637H0.305195V20.3641ZM1.47707 7.91824H4.31188V19.1922H1.47707V7.91824ZM2.89449 0.525391C1.29844 0.525391 0 1.82387 0 3.41988C0 5.0159 1.29844 6.31441 2.89449 6.31441C4.49055 6.31441 5.78902 5.01594 5.78902 3.41988C5.78902 1.82383 4.49051 0.525391 2.89449 0.525391ZM1.17188 3.41988C1.17188 2.47004 1.94461 1.69727 2.89449 1.69727C3.84437 1.69727 4.61715 2.47 4.61715 3.41988C4.61715 4.36977 3.84437 5.14254 2.89449 5.14254C1.94461 5.14254 1.17188 4.36973 1.17188 3.41988ZM19.9875 11.0225C19.8032 8.37188 17.5922 6.32934 14.8512 6.32934C13.6251 6.32934 12.4677 6.75559 11.5558 7.51191V6.74629H6.59371V20.364H11.7723V12.9162C11.7723 12.0768 12.4552 11.3939 13.2946 11.3939C14.1339 11.3939 14.8168 12.0768 14.8168 12.9165L14.8218 20.364H20V11.035L19.9875 11.0225ZM10.6004 19.1922H7.76559V7.9182H10.3839V9.59192L11.3216 9.59731L11.4958 9.32684C12.2321 8.18367 13.4865 7.50125 14.8512 7.50125C17.0323 7.50125 18.7786 9.16539 18.827 11.2897L18.8281 19.1922H15.9929L15.9887 12.9162C15.9887 11.4306 14.7801 10.222 13.2946 10.222C11.809 10.222 10.6004 11.4306 10.6004 12.9162V19.1922Z" fill="#076280"/>
</g>
<defs>
<clipPath id="clip0_84_861">
<rect width="20" height="20" fill="white" transform="translate(0 0.444336)"/>
</clipPath>
</defs>
</svg>
