<svg width="40" height="40" viewBox="0 0 40 40" fill="none" xmlns="http://www.w3.org/2000/svg">
<g clip-path="url(#clip0_0_1178)">
<path d="M20.0666 13.955C20.6171 13.955 21.063 13.5089 21.063 12.9586C21.063 12.4083 20.6171 11.9622 20.0666 11.9622C15.6645 11.9622 12.0957 15.5309 12.0957 19.9333C12.0957 24.3355 15.6645 27.9043 20.0666 27.9043C24.4691 27.9043 28.0378 24.3355 28.0378 19.9333C28.0378 19.3829 27.5916 18.937 27.0414 18.937C26.4912 18.937 26.045 19.3829 26.045 19.9333C26.045 23.235 23.3686 25.9118 20.0666 25.9118C16.7649 25.9118 14.0882 23.235 14.0882 19.9333C14.0882 16.6314 16.7649 13.955 20.0666 13.955Z" fill="#08607C"/>
<path d="M39.078 14.0152C38.9049 13.4924 38.341 13.209 37.8179 13.3819C37.307 13.551 37.0226 14.0948 37.1749 14.6108C40.1546 24.0997 34.8781 34.2074 25.3893 37.1871C15.9008 40.1668 5.7931 34.8904 2.81342 25.4016C-0.166655 15.9128 5.11013 5.80507 14.5986 2.82531C18.111 1.72241 21.877 1.72241 25.3893 2.82531C25.9167 2.9843 26.473 2.68586 26.632 2.15852C26.7886 1.63906 26.5014 1.09008 25.9853 0.922269C15.4492 -2.38343 4.22787 3.47812 0.922249 14.0146C-2.38345 24.5507 3.47834 35.772 14.0146 39.0777C24.551 42.3834 35.772 36.5218 39.0776 25.9853C40.3001 22.089 40.3002 17.9117 39.078 14.0152H39.078Z" fill="#08607C"/>
<path d="M21.9641 7.1185C21.9692 6.55115 21.5334 6.07693 20.9677 6.03451C20.6701 6.0092 20.3723 5.98389 20.0667 5.98389C12.3626 5.98389 6.11719 12.2293 6.11719 19.9334C6.11719 27.6373 12.3626 33.8827 20.0667 33.8827C27.7706 33.8827 34.016 27.6373 34.016 19.9335C34.016 19.573 33.9941 19.2129 33.9498 18.8553C33.8702 18.3084 33.3623 17.9297 32.8155 18.0094C32.2686 18.0887 31.8898 18.5969 31.9692 19.1437C31.9723 19.1644 31.9759 19.1848 31.9802 19.2056C32.0019 19.447 32.0232 19.6862 32.0232 19.9329C32.0235 26.5365 26.6705 31.8896 20.067 31.8902C13.4634 31.8905 8.11023 26.5371 8.11 19.9337C8.10969 13.3304 13.4624 7.97693 20.0662 7.9767H20.0664C20.3137 7.9767 20.5531 7.99803 20.794 8.01936L20.9807 8.03498C21.5014 8.05725 21.9414 7.65318 21.9634 7.13256C21.9637 7.12764 21.9637 7.1231 21.9641 7.1185Z" fill="#08607C"/>
<path d="M26.0455 8.97299V12.546L19.3627 19.2288C18.9669 19.6111 18.956 20.242 19.3384 20.6378C19.7208 21.0335 20.3516 21.0445 20.7473 20.6622C20.7556 20.6542 20.7638 20.646 20.7718 20.6378L27.4546 13.955H31.0275C31.2918 13.955 31.5451 13.85 31.7322 13.663L37.7103 7.68455C38.0994 7.29549 38.0994 6.66471 37.7103 6.27557C37.6178 6.18307 37.508 6.1097 37.3871 6.05965C37.2663 6.00959 37.1367 5.98384 37.0059 5.98385H34.0167V2.99463C34.0167 2.44439 33.5706 1.99822 33.02 1.99854C32.7559 1.9986 32.5027 2.10353 32.316 2.29025L26.3376 8.26869C26.245 8.36112 26.1715 8.47091 26.1214 8.59176C26.0713 8.71261 26.0455 8.84216 26.0455 8.97299ZM28.0384 9.38564L32.0239 5.40002V6.98025C32.0239 7.53049 32.4701 7.97666 33.0203 7.97666H34.6005L30.6149 11.9622H28.0384V9.38564Z" fill="#08607C"/>
</g>
<defs>
<clipPath id="clip0_0_1178">
<rect width="40" height="40" fill="white"/>
</clipPath>
</defs>
</svg>
