<svg width="44" height="43" viewBox="0 0 44 43" fill="none" xmlns="http://www.w3.org/2000/svg">
<g clip-path="url(#clip0_0_2033)">
<path d="M36.5052 5.31134C33.0801 1.88629 28.5262 0 23.6826 0C18.8388 0 14.2849 1.88629 10.8599 5.31134C7.47014 8.70112 5.58763 13.196 5.54925 17.9839L2.24934 24.5837C2.10186 24.8787 2.20634 25.2375 2.48911 25.4071L5.54866 27.2429V36.9834C5.54866 37.3319 5.83127 37.6145 6.17981 37.6145H12.2806V42.3689C12.2806 42.7175 12.5632 43.0001 12.9117 43.0001C13.2603 43.0001 13.5429 42.7175 13.5429 42.3689V36.9834C13.5429 36.6348 13.2603 36.3522 12.9117 36.3522H6.81078V26.8855C6.81078 26.6639 6.69446 26.4584 6.5044 26.3443L3.63953 24.6254L6.7441 18.4163C6.78794 18.3286 6.81078 18.2321 6.81078 18.134C6.81078 8.83087 14.3795 1.2622 23.6826 1.2622C32.9857 1.2622 40.5544 8.83087 40.5544 18.134C40.5544 23.3618 38.189 28.2091 34.0649 31.4334C33.9119 31.553 33.8224 31.7364 33.8224 31.9307V42.3689C33.8224 42.7174 34.1049 43 34.4536 43C34.8022 43 35.0847 42.7174 35.0847 42.3689V32.2351C39.3672 28.7711 41.8166 23.6496 41.8166 18.1341C41.8166 13.2903 39.9304 8.73639 36.5052 5.31134Z" fill="#08607C"/>
<path d="M29.7788 8.33447C28.8478 8.33447 28.0904 9.09194 28.0904 10.0229C28.0904 10.2922 28.154 10.5469 28.2667 10.773L23.6498 15.3899C23.5487 15.4909 23.492 15.628 23.492 15.7709V28.9912C23.492 29.2888 23.7332 29.5301 24.0309 29.5301C24.3286 29.5301 24.5698 29.2888 24.5698 28.9912V15.9941L29.0288 11.5351C29.2549 11.6477 29.5095 11.7115 29.7788 11.7115C30.7098 11.7115 31.4673 10.954 31.4673 10.023C31.4673 9.09201 30.7098 8.33447 29.7788 8.33447ZM29.7788 10.6336C29.4421 10.6336 29.1681 10.3597 29.1681 10.0229C29.1681 9.68605 29.442 9.41212 29.7788 9.41212C30.1156 9.41212 30.3896 9.68605 30.3896 10.0229C30.3896 10.3597 30.1156 10.6336 29.7788 10.6336Z" fill="#08607C"/>
<path d="M33.8018 20.405C33.0592 20.405 32.4275 20.8871 32.202 21.5546H29.1675V18.293L31.3274 16.1332C31.5535 16.2458 31.8082 16.3096 32.0774 16.3096C33.0084 16.3096 33.7659 15.5521 33.7659 14.6211C33.7659 13.6901 33.0084 12.9326 32.0774 12.9326C31.1464 12.9326 30.389 13.6901 30.389 14.6211C30.389 14.8904 30.4527 15.145 30.5653 15.3711L28.2476 17.6888C28.1465 17.7899 28.0898 17.9269 28.0898 18.0698V31.2901C28.0898 31.5877 28.331 31.829 28.6287 31.829C28.9264 31.829 29.1676 31.5877 29.1676 31.2901V22.6323H32.2021C32.4276 23.2998 33.0593 23.7819 33.802 23.7819C34.733 23.7819 35.4904 23.0244 35.4904 22.0934C35.4903 21.1624 34.7328 20.405 33.8018 20.405ZM32.0774 14.0103C32.4142 14.0103 32.6882 14.2843 32.6882 14.6211C32.6882 14.9579 32.4142 15.2318 32.0774 15.2318C31.7407 15.2318 31.4667 14.9579 31.4667 14.6211C31.4667 14.2843 31.7407 14.0103 32.0774 14.0103ZM33.8018 22.7042C33.4651 22.7042 33.1911 22.4302 33.1911 22.0934C33.1911 21.7567 33.465 21.4827 33.8018 21.4827C34.1386 21.4827 34.4126 21.7566 34.4126 22.0934C34.4126 22.4302 34.1386 22.7042 33.8018 22.7042Z" fill="#08607C"/>
<path d="M25.5605 9.64182L23.8176 7.89893C23.9302 7.67283 23.994 7.41819 23.994 7.14892C23.994 6.21792 23.2365 5.46045 22.3055 5.46045C21.3745 5.46045 20.617 6.21792 20.617 7.14892C20.617 8.07992 21.3745 8.83739 22.3055 8.83739C22.5748 8.83739 22.8294 8.77364 23.0555 8.66105L24.4174 10.0229L19.0504 15.3898C18.9493 15.4908 18.8926 15.6278 18.8926 15.7708V35.8887C18.8926 36.1863 19.1339 36.4276 19.4315 36.4276C19.7291 36.4276 19.9704 36.1863 19.9704 35.8887V15.994L25.5605 10.4038C25.7709 10.1935 25.7709 9.85215 25.5605 9.64182ZM22.3055 7.75952C21.9688 7.75952 21.6948 7.48559 21.6948 7.14878C21.6948 6.81203 21.9687 6.53803 22.3055 6.53803C22.6423 6.53803 22.9163 6.81196 22.9163 7.14878C22.9163 7.48559 22.6423 7.75952 22.3055 7.75952Z" fill="#08607C"/>
<path d="M16.9032 21.1046L14.6833 19.2547C14.757 19.0653 14.7978 18.8597 14.7978 18.6445C14.7978 17.7135 14.0404 16.9561 13.1094 16.9561C12.1784 16.9561 11.4209 17.7135 11.4209 18.6445C11.4209 19.5755 12.1784 20.333 13.1094 20.333C13.4332 20.333 13.7359 20.2411 13.9932 20.0824L16.0193 21.7708V33.0144C16.0193 33.312 16.2606 33.5533 16.5582 33.5533C16.8558 33.5533 17.0971 33.312 17.0971 33.0144V21.5186C17.0971 21.3587 17.0261 21.2069 16.9032 21.1046ZM13.1095 19.2553C12.7728 19.2553 12.4988 18.9813 12.4988 18.6445C12.4988 18.3077 12.7727 18.0338 13.1095 18.0338C13.4463 18.0338 13.7203 18.3077 13.7203 18.6445C13.7203 18.9813 13.4463 19.2553 13.1095 19.2553Z" fill="#08607C"/>
<path d="M24.0309 31.0386C23.7332 31.0386 23.492 31.2799 23.492 31.5775V37.0381C23.492 37.3357 23.7332 37.577 24.0309 37.577C24.3286 37.577 24.5698 37.3357 24.5698 37.0381V31.5775C24.5698 31.2799 24.3285 31.0386 24.0309 31.0386Z" fill="#08607C"/>
<path d="M21.7314 22.1294C21.4337 22.1294 21.1925 22.3707 21.1925 22.6683V35.8886C21.1925 36.1862 21.4337 36.4275 21.7314 36.4275C22.0291 36.4275 22.2703 36.1862 22.2703 35.8886V22.6683C22.2703 22.3706 22.029 22.1294 21.7314 22.1294Z" fill="#08607C"/>
<path d="M21.7314 16.9565C21.4337 16.9565 21.1925 17.1978 21.1925 17.4954V19.2198C21.1925 19.5174 21.4337 19.7587 21.7314 19.7587C22.0291 19.7587 22.2703 19.5174 22.2703 19.2198V17.4954C22.2703 17.1978 22.029 16.9565 21.7314 16.9565Z" fill="#08607C"/>
<path d="M26.3309 20.98C26.0332 20.98 25.792 21.2213 25.792 21.5189V35.314C25.792 35.6116 26.0332 35.8529 26.3309 35.8529C26.6286 35.8529 26.8698 35.6116 26.8698 35.314V21.5189C26.8697 21.2213 26.6285 20.98 26.3309 20.98Z" fill="#08607C"/>
<path d="M26.3309 15.8069C26.0332 15.8069 25.792 16.0482 25.792 16.3458V18.645C25.792 18.9426 26.0332 19.1839 26.3309 19.1839C26.6286 19.1839 26.8698 18.9426 26.8698 18.645V16.3458C26.8697 16.0482 26.6285 15.8069 26.3309 15.8069Z" fill="#08607C"/>
<path d="M19.8136 11.3661C19.6032 11.1556 19.262 11.1556 19.0516 11.3661L15.028 15.3897C14.8175 15.6002 14.8175 15.9414 15.028 16.1518L17.3272 18.451C17.5464 18.6702 17.9163 18.6554 18.1179 18.4201C18.2986 18.2092 18.2855 17.8851 18.0892 17.6889L16.1711 15.7708L19.8136 12.1282C20.0241 11.9177 20.0241 11.5765 19.8136 11.3661Z" fill="#08607C"/>
</g>
<defs>
<clipPath id="clip0_0_2033">
<rect width="43" height="43" fill="white" transform="translate(0.5)"/>
</clipPath>
</defs>
</svg>
