<svg width="50" height="45" viewBox="0 0 50 45" fill="none" xmlns="http://www.w3.org/2000/svg">
<path d="M10.1866 13.4062C15.059 10.8289 20.3383 10.8289 25.2108 13.4035" stroke="#08607C" stroke-width="1.5" stroke-miterlimit="10" stroke-linecap="round" stroke-linejoin="round"/>
<path d="M4.37341 7.59246C7.18129 3.67772 12.3467 1 17.6993 1C23.0519 1 28.2146 3.67762 31.0225 7.59246" stroke="#08607C" stroke-width="1.5" stroke-miterlimit="10" stroke-linecap="round" stroke-linejoin="round"/>
<path d="M33.0677 38.4033L27.4737 44.0001L17.6991 34.2254M11.0442 27.5706L6.38341 22.9097C1.05526 17.5816 1.31836 11.8546 4.37316 7.59253L17.6991 20.9184" stroke="#08607C" stroke-width="1.5" stroke-miterlimit="10" stroke-linecap="round" stroke-linejoin="round"/>
<path d="M33.16 14.8794C33.3852 12.2397 32.555 9.73304 31.0221 7.59253L1.26953 37.3452L7.92439 44.0001L24.0988 27.8257" stroke="#08607C" stroke-width="1.5" stroke-miterlimit="10" stroke-linecap="round" stroke-linejoin="round"/>
<path d="M36.1987 38.813C42.897 38.813 48.358 33.3519 48.358 26.6537C48.358 19.9582 42.897 14.4971 36.1987 14.4971C29.5032 14.4971 24.0421 19.9582 24.0421 26.6537C24.0421 33.3519 29.5032 38.813 36.1987 38.813Z" stroke="#08607C" stroke-width="1.5" stroke-miterlimit="10" stroke-linecap="round" stroke-linejoin="round"/>
<path d="M38.7624 20.4731H33.6377V24.0921H30.0187V29.2141H33.6377V32.8359H38.7624V29.2141H42.3815V24.0921H38.7624V20.4731Z" stroke="#08607C" stroke-width="1.5" stroke-miterlimit="10" stroke-linecap="round" stroke-linejoin="round"/>
</svg>
