<svg width="43" height="43" viewBox="0 0 43 43" fill="none" xmlns="http://www.w3.org/2000/svg">
<g clip-path="url(#clip0_1_231)">
<path d="M34.8938 19.0098C34.8409 17.3049 34.3412 15.6891 33.4896 14.4612C32.5414 13.0956 31.1901 12.2323 29.565 11.9484C28.8405 10.7891 27.6901 9.9604 26.361 9.64051C23.8767 9.03414 21.9291 7.74163 20.4056 5.68737L16.3836 0.271215C16.1619 -0.0269297 15.7411 -0.0890781 15.4438 0.132641C15.1457 0.35352 15.0836 0.775121 15.3053 1.07243L19.3273 6.48774C21.0456 8.80403 23.2426 10.262 26.0444 10.9456C27.7946 11.3698 29.0166 12.9243 29.0166 14.7258C29.0166 16.4575 27.8567 17.9986 26.1964 18.4731C26.004 18.5277 25.8461 18.6663 25.7664 18.8494C25.1466 20.262 23.7465 21.1749 22.2004 21.1749C20.0462 21.1749 18.2943 19.4255 18.2943 17.2747C18.2943 16.9984 18.3262 16.7078 18.3875 16.4189C18.8259 14.4469 18.4219 12.5506 17.2184 10.9339L9.31298 0.272055C9.09211 -0.0260898 8.67134 -0.0882383 8.3732 0.132641C8.07505 0.35352 8.01291 0.774281 8.23379 1.07243L16.1392 11.7351C17.1168 13.0486 17.4309 14.5259 17.074 16.1333C16.9917 16.5205 16.9497 16.9043 16.9497 17.2747C16.9497 19.124 17.9138 20.7508 19.3651 21.6847C18.8806 22.6206 18.628 23.6593 18.6285 24.7132C18.6285 24.7997 18.6319 24.8862 18.6353 24.9719C17.724 25.7538 17.189 26.8943 17.189 28.0952V42.3281C17.189 42.6993 17.4897 42.9999 17.8609 42.9999C18.2321 42.9999 18.5328 42.6993 18.5328 42.3281V28.0952C18.5328 27.5939 18.6722 27.1067 18.925 26.6835C19.2475 27.7215 19.8261 28.6663 20.6307 29.4407C21.5058 30.2897 22.2163 31.2161 22.7597 32.2138C21.5134 33.0722 20.6349 34.814 20.6349 36.576V42.3281C20.6349 42.6993 20.9356 42.9999 21.3068 42.9999C21.678 42.9999 21.9787 42.6993 21.9787 42.3281V36.5751C21.9787 35.3439 22.5414 34.1043 23.335 33.4543C23.8305 34.7342 24.0808 36.1174 24.0808 37.5964V42.3281C24.0808 42.6993 24.3815 42.9999 24.7527 42.9999C25.1239 42.9999 25.4245 42.6993 25.4245 42.3281V37.5972C25.4245 34.0287 24.1261 30.9599 21.5646 28.4748C20.5383 27.4864 19.9731 26.151 19.9731 24.714C19.9731 23.8557 20.1822 23.0184 20.5812 22.2634C21.1044 22.4331 21.6511 22.5196 22.2012 22.5195C24.1606 22.5195 25.9444 21.4286 26.8414 19.7128C29.0056 20.4031 30.4964 22.4238 30.4964 24.714C30.4964 26.2719 30.3334 28.0759 30.1604 29.9857C29.9639 32.155 29.7615 34.3991 29.7615 36.6054V42.3281C29.7615 42.6993 30.0622 42.9999 30.4334 42.9999C30.8046 42.9999 31.1052 42.6993 31.1052 42.3281V36.6054C31.1052 34.4596 31.3051 32.2466 31.4991 30.1067C31.657 28.3657 31.8057 26.712 31.8351 25.2221C32.7522 24.8803 33.5374 24.1278 34.0817 23.0503C34.6511 21.919 34.94 20.4837 34.8938 19.0098ZM31.7679 23.7566C31.4613 21.6679 30.1655 19.8539 28.3136 18.8788C29.5709 17.9054 30.3595 16.3803 30.3595 14.7258C30.3595 14.3092 30.3099 13.9036 30.2175 13.513C32.5531 14.3974 33.4845 16.9312 33.5509 19.0518C33.6172 21.1884 32.884 23.0327 31.7679 23.7566Z" fill="#24738C"/>
</g>
<defs>
<clipPath id="clip0_1_231">
<rect width="43" height="43" fill="white"/>
</clipPath>
</defs>
</svg>
