<svg width="43" height="43" viewBox="0 0 43 43" fill="none" xmlns="http://www.w3.org/2000/svg">
<g clip-path="url(#clip0_1_207)">
<path d="M19.9711 4.68305H18.54V3.25195C18.54 3.07376 18.4693 2.90287 18.3433 2.77687C18.2173 2.65086 18.0464 2.58008 17.8682 2.58008C17.69 2.58008 17.5191 2.65086 17.3931 2.77687C17.2671 2.90287 17.1963 3.07376 17.1963 3.25195V4.68305H15.7686C15.6803 4.68305 15.593 4.70043 15.5114 4.73419C15.4299 4.76796 15.3559 4.81745 15.2935 4.87983C15.2311 4.94222 15.1816 5.01629 15.1478 5.09781C15.1141 5.17932 15.0967 5.26669 15.0967 5.35492C15.0967 5.44315 15.1141 5.53052 15.1478 5.61204C15.1816 5.69355 15.2311 5.76762 15.2935 5.83001C15.3559 5.8924 15.4299 5.94189 15.5114 5.97565C15.593 6.00942 15.6803 6.0268 15.7686 6.0268H17.1963V7.45453C17.1963 7.63272 17.2671 7.80362 17.3931 7.92962C17.5191 8.05562 17.69 8.12641 17.8682 8.12641C18.0464 8.12641 18.2173 8.05562 18.3433 7.92962C18.4693 7.80362 18.54 7.63272 18.54 7.45453V6.0268H19.9711C20.1493 6.0268 20.3202 5.95601 20.4462 5.83001C20.5722 5.70401 20.643 5.53311 20.643 5.35492C20.643 5.17673 20.5722 5.00584 20.4462 4.87983C20.3202 4.75383 20.1493 4.68305 19.9711 4.68305ZM32.2496 31.5782H32.5856V31.9141C32.5856 32.0923 32.6564 32.2632 32.7824 32.3892C32.9084 32.5152 33.0793 32.586 33.2575 32.586C33.4357 32.586 33.6065 32.5152 33.7325 32.3892C33.8586 32.2632 33.9293 32.0923 33.9293 31.9141V31.5782H34.2653C34.4435 31.5782 34.6144 31.5074 34.7404 31.3814C34.8664 31.2554 34.9371 31.0845 34.9371 30.9063C34.9371 30.7281 34.8664 30.5572 34.7404 30.4312C34.6144 30.3052 34.4435 30.2345 34.2653 30.2345H32.2496C32.0715 30.2345 31.9006 30.3052 31.7746 30.4312C31.6486 30.5572 31.5778 30.7281 31.5778 30.9063C31.5778 31.0845 31.6486 31.2554 31.7746 31.3814C31.9006 31.5074 32.0715 31.5782 32.2496 31.5782Z" fill="#08607C"/>
<path d="M42.7279 37.2219C42.5496 36.9133 42.3106 36.6441 42.0254 36.4305C41.7402 36.2168 41.4146 36.0632 41.0684 35.9789C40.3425 34.7817 39.2187 33.878 37.8937 33.4258C39.0973 32.2126 39.7724 30.5727 39.7716 28.8637C39.7719 28.3635 39.7063 27.8654 39.5768 27.3823C39.8666 27.1856 40.1108 26.9289 40.2926 26.6296C40.4745 26.3303 40.5899 25.9954 40.631 25.6475C40.672 25.2997 40.6378 24.9471 40.5306 24.6137C40.4233 24.2803 40.2457 23.9738 40.0096 23.7151C39.7735 23.4564 39.4845 23.2515 39.1623 23.1142C38.84 22.977 38.492 22.9107 38.1419 22.9199C37.7918 22.929 37.4477 23.0133 37.1331 23.1671C36.8184 23.3209 36.5405 23.5406 36.3182 23.8112C34.3587 23.079 32.2006 23.079 30.2411 23.8112C29.9226 23.4042 29.4849 23.1067 28.9892 22.9603C28.4935 22.8138 27.9645 22.8258 27.4759 22.9944C26.9873 23.1631 26.5635 23.4801 26.2637 23.9011C25.9639 24.3221 25.8029 24.8262 25.8034 25.3431C25.8047 25.7363 25.9004 26.1233 26.0822 26.4719C24.7324 25.7723 23.2986 25.2484 21.8158 24.9131C23.3565 24.1708 24.656 23.0079 25.5642 21.5588C26.4724 20.1096 26.9525 18.4332 26.9489 16.723V4.49484C26.948 3.30301 26.4742 2.16025 25.6314 1.31749C24.7887 0.474738 23.6459 0.000889761 22.4541 0L13.283 0C12.0917 0.00177899 10.9498 0.47602 10.1078 1.31868C9.26576 2.16134 8.79237 3.30359 8.79148 4.49484V16.723C8.7933 18.4312 9.27602 20.1044 10.1844 21.551C11.0928 22.9977 12.3902 24.1593 13.928 24.903C13.192 25.0662 12.4671 25.276 11.7578 25.5312C11.7076 25.5446 11.6591 25.5638 11.6134 25.5884C8.20476 26.8662 5.26693 29.1533 3.19192 32.1442C1.11691 35.1352 0.00340953 38.6879 0 42.3281C0 42.5063 0.0707866 42.6772 0.196788 42.8032C0.322789 42.9292 0.493683 43 0.671875 43C0.850067 43 1.02096 42.9292 1.14696 42.8032C1.27296 42.6772 1.34375 42.5063 1.34375 42.3281C1.34655 39.2193 2.22501 36.1741 3.87851 33.5415C5.53201 30.9088 7.89366 28.7952 10.6929 27.4427C10.3313 28.8233 10.0752 30.2293 9.92695 31.6487C8.91114 31.8206 7.98883 32.3462 7.32306 33.1325C6.6573 33.9187 6.29094 34.915 6.28875 35.9453V41.4278C6.28831 41.6338 6.32845 41.8379 6.40688 42.0284C6.48532 42.2189 6.60051 42.3921 6.74587 42.5381C6.89124 42.6841 7.06394 42.8 7.25411 42.8793C7.44428 42.9585 7.6482 42.9996 7.85422 43C8.03241 43 8.20331 42.9292 8.32931 42.8032C8.45531 42.6772 8.52609 42.5063 8.52609 42.3281C8.52609 42.1499 8.45531 41.979 8.32931 41.853C8.20331 41.727 8.03241 41.6562 7.85422 41.6562C7.82482 41.6563 7.79571 41.6504 7.76859 41.6391C7.74147 41.6277 7.71687 41.6111 7.69624 41.5901C7.67561 41.5692 7.65935 41.5443 7.6484 41.5171C7.63746 41.4898 7.63205 41.4606 7.6325 41.4312V35.9453C7.6325 35.5483 7.7107 35.1551 7.86265 34.7883C8.01459 34.4215 8.23729 34.0882 8.51804 33.8074C8.7988 33.5267 9.1321 33.304 9.49892 33.152C9.86574 33.0001 10.2589 32.9219 10.6559 32.9219C11.053 32.9219 11.4461 33.0001 11.813 33.152C12.1798 33.304 12.5131 33.5267 12.7938 33.8074C13.0746 34.0882 13.2973 34.4215 13.4492 34.7883C13.6012 35.1551 13.6794 35.5483 13.6794 35.9453V41.4278C13.6805 41.4593 13.6748 41.4906 13.6629 41.5197C13.6509 41.5488 13.6329 41.575 13.61 41.5967C13.5871 41.6183 13.5599 41.6348 13.5302 41.645C13.5004 41.6553 13.4688 41.6591 13.4375 41.6562C13.2593 41.6562 13.0884 41.727 12.9624 41.853C12.8364 41.979 12.7656 42.1499 12.7656 42.3281C12.7656 42.5063 12.8364 42.6772 12.9624 42.8032C13.0884 42.9292 13.2593 43 13.4375 43C13.853 42.9991 14.2512 42.8334 14.5447 42.5393C14.8381 42.2452 15.003 41.8467 15.003 41.4312V35.9453C15.0008 34.9004 14.624 33.8909 13.941 33.1001C13.2581 32.3093 12.3142 31.7896 11.2808 31.6352C11.442 30.2445 11.8082 27.8996 12.3726 26.7473L12.4767 26.7104L17.3277 33.3317C17.39 33.4171 17.4717 33.4866 17.5659 33.5344C17.6602 33.5823 17.7645 33.6073 17.8702 33.6073C17.9759 33.6073 18.0802 33.5823 18.1744 33.5344C18.2687 33.4866 18.3504 33.4171 18.4127 33.3317L23.267 26.7037C24.499 27.1315 25.6762 27.7032 26.7742 28.4069C26.7742 28.558 26.7541 28.7092 26.7541 28.8637C26.7537 29.7195 26.9223 30.5669 27.2503 31.3573C27.5784 32.1477 28.0593 32.8655 28.6655 33.4695C27.3454 33.9247 26.2143 34.8064 25.4506 35.9755C25.1005 36.0578 24.7708 36.2107 24.4819 36.4251C24.1931 36.6394 23.9511 36.9106 23.7709 37.2219C23.435 37.8937 23.4081 38.8041 23.7407 40.2151C23.9452 41.0057 24.4045 41.707 25.0476 42.2104C25.6906 42.7138 26.4817 42.9913 27.2983 43C27.5177 43.0009 27.7364 42.9761 27.95 42.9261C28.4619 42.8034 28.9239 42.5267 29.2736 42.1333C30.1571 42.953 31.2623 42.9563 33.2612 42.9563C35.26 42.9563 36.3686 42.9563 37.2521 42.1299C37.6014 42.5246 38.0634 42.8025 38.5757 42.9261C38.7881 42.9763 39.0058 43.0011 39.2241 43C40.0375 42.9896 40.8248 42.711 41.4638 42.2074C42.1028 41.7039 42.5578 41.0036 42.7581 40.2151C43.0907 38.8041 43.0806 37.9072 42.7279 37.2219ZM38.2028 24.2614C38.4129 24.2607 38.6188 24.3203 38.796 24.4331C38.9732 24.5459 39.1144 24.7071 39.2028 24.8977C39.2912 25.0883 39.3231 25.3002 39.2947 25.5084C39.2663 25.7165 39.1789 25.9122 39.0427 26.0721C38.6666 25.4389 38.1591 24.8936 37.5545 24.473C37.7432 24.3365 37.9699 24.2625 38.2028 24.2614ZM28.2859 24.1875C28.5496 24.1894 28.8047 24.2819 29.0082 24.4495C28.3735 24.8873 27.8444 25.4611 27.4595 26.1292C27.3014 25.9679 27.1947 25.7634 27.1528 25.5415C27.1109 25.3195 27.1358 25.0902 27.2242 24.8823C27.3127 24.6745 27.4607 24.4976 27.6497 24.3739C27.8387 24.2502 28.0601 24.1854 28.2859 24.1875ZM25.5984 12.8966C21.4362 12.7421 18.8528 11.4756 17.4688 10.5148H25.6052L25.5984 12.8966ZM10.1453 4.4982C10.1444 3.66422 10.4742 2.8639 11.0623 2.27261C11.6504 1.68133 12.449 1.34731 13.283 1.34375H22.4541C23.2895 1.34464 24.0905 1.67691 24.6812 2.26767C25.272 2.85842 25.6043 3.65939 25.6052 4.49484V9.17109H10.152L10.1453 4.4982ZM10.1453 16.7263V10.5148H15.3994C16.209 11.3748 19.2089 14.022 25.6052 14.237V16.723C25.6052 18.7722 24.7911 20.7375 23.3421 22.1865C21.8931 23.6355 19.9278 24.4495 17.8786 24.4495C15.8294 24.4495 13.8641 23.6355 12.4151 22.1865C10.9661 20.7375 10.152 18.7722 10.152 16.723L10.1453 16.7263ZM17.8719 31.7998L13.8406 26.3039C16.487 25.6393 19.2567 25.6393 21.9031 26.3039L17.8719 31.7998ZM28.1012 28.8671C28.1012 25.716 30.8827 24.6007 33.2645 24.6007C35.6463 24.6007 38.4313 25.716 38.4313 28.8671C38.3969 30.2142 37.8376 31.4945 36.8728 32.4351C35.9079 33.3757 34.6137 33.9021 33.2662 33.9021C31.9187 33.9021 30.6246 33.3757 29.6597 32.4351C28.6948 31.4945 28.1355 30.2142 28.1012 28.8671ZM27.6477 41.6327C27.0835 41.7082 26.5111 41.5765 26.0367 41.2621C25.5622 40.9477 25.2179 40.4718 25.0677 39.9228C24.8224 38.8747 24.7955 38.2162 24.987 37.8501C25.0979 37.6284 25.3465 37.373 26.3308 37.148C27.1874 36.9464 27.5939 36.9296 27.8324 37.0909C28.1415 37.2991 28.4102 37.9307 28.679 39.083C28.8361 39.666 28.7923 40.2849 28.5547 40.8399C28.4736 41.0314 28.3492 41.2015 28.1912 41.3367C28.0332 41.472 27.846 41.5687 27.6443 41.6193L27.6477 41.6327ZM33.2645 41.6327C31.0003 41.6327 30.483 41.6092 29.9488 40.9004C30.1363 40.2085 30.1455 39.4804 29.9757 38.784C29.6095 37.2219 29.203 36.4089 28.5715 35.9823C28.262 35.7764 27.9015 35.6601 27.5301 35.6463C28.246 35.0149 29.1482 34.634 30.1 34.5612C31.0679 35.1032 32.1586 35.3879 33.2679 35.3879C34.3772 35.3879 35.4679 35.1032 36.4358 34.5612C37.4155 34.584 38.3513 34.9722 39.0595 35.6497C38.6653 35.6525 38.2803 35.7692 37.9509 35.9856C37.3193 36.4123 36.9128 37.2252 36.5466 38.7873C36.3762 39.485 36.3866 40.2146 36.5769 40.9071C36.0427 41.5891 35.522 41.6126 33.2578 41.6126L33.2645 41.6327ZM41.4547 39.9295C41.3046 40.4766 40.9618 40.9509 40.4896 41.2652C40.0173 41.5794 39.4473 41.7123 38.8848 41.6395C38.6845 41.584 38.4995 41.4838 38.3435 41.3465C38.1876 41.2092 38.0648 41.0383 37.9845 40.8466C37.7457 40.292 37.7008 39.673 37.8568 39.0897C38.1255 37.9374 38.3943 37.3059 38.7034 37.0976C38.8384 37.015 38.9956 36.9763 39.1535 36.9867C39.509 37.005 39.8615 37.0613 40.205 37.1547C41.1792 37.3798 41.4245 37.6351 41.5488 37.8568C41.7234 38.2028 41.6966 38.8613 41.4513 39.9094L41.4547 39.9295Z" fill="#08607C"/>
</g>
<defs>
<clipPath id="clip0_1_207">
<rect width="43" height="43" fill="white"/>
</clipPath>
</defs>
</svg>
