<svg width="43" height="43" viewBox="0 0 43 43" fill="none" xmlns="http://www.w3.org/2000/svg">
<g clip-path="url(#clip0_1_183)">
<path d="M42.9479 23.9705C42.6302 21.7692 40.9008 20.0398 38.6994 19.722V18.4191C38.6994 14.8244 35.9668 11.8976 32.6079 11.8976C29.3456 11.8976 26.6145 14.7355 26.5163 18.2242H26.5578L26.5163 18.2314V32.3545C26.5163 36.8695 23.1408 40.5359 18.9914 40.5359C14.8419 40.5359 11.4665 36.8644 11.4665 32.3545V31.1312C12.5056 31.1312 13.6165 30.378 13.6165 28.2646V26.4622C18.216 25.2861 21.4997 21.3367 21.4997 16.859V15.3648H20.0664L20.0363 6.03747C20.0259 4.31096 18.787 2.8368 17.0879 2.52944C16.7215 1.40671 15.5142 0.793609 14.3914 1.16018C13.2686 1.52666 12.6555 2.73396 13.0221 3.85678C13.3886 4.97951 14.5959 5.59261 15.7187 5.22604C16.0157 5.12908 16.2878 4.96823 16.5159 4.75481C16.7441 4.54138 16.9227 4.28057 17.0392 3.9907C17.4862 4.11787 17.88 4.38646 18.1615 4.75623C18.443 5.126 18.5972 5.57704 18.6008 6.04177L18.6331 15.3648H17.1997V16.8798C17.1426 19.3726 15.4714 21.5388 13.0747 22.2267C11.7923 22.6336 10.4154 22.6336 9.13307 22.2267C6.73917 21.5365 5.07169 19.3706 5.01659 16.8798V15.3648H2.86662V6.04822C2.86864 5.57697 3.02544 5.11943 3.3129 4.74599C3.60035 4.37255 4.00255 4.10391 4.4576 3.98139C4.89378 5.09176 6.14748 5.63821 7.25785 5.20203C8.36821 4.76586 8.91466 3.51207 8.47849 2.40179C8.04231 1.29151 6.78853 0.744966 5.67825 1.18114C5.38112 1.29788 5.11355 1.47902 4.89481 1.71154C4.67606 1.94405 4.51157 2.22216 4.41317 2.52586C2.69561 2.81933 1.43806 4.30576 1.43331 6.04822V15.3648H0V16.8554C0 21.3381 3.28587 25.289 7.88322 26.4622V28.2646C7.88322 30.378 8.99403 31.1312 10.0332 31.1312V32.3545C10.0332 37.6578 14.0515 41.9692 18.9914 41.9692C23.9313 41.9692 27.9496 37.6528 27.9496 32.3545V18.2658C28.0213 15.5461 30.1125 13.333 32.6079 13.333C35.1763 13.333 37.2661 15.6149 37.2661 18.4213V19.722C34.5239 20.1178 32.6218 22.6617 33.0176 25.4039C33.4134 28.146 35.9572 30.0481 38.6994 29.6524C41.4416 29.2566 43.3437 26.7126 42.9479 23.9705ZM15.0498 3.89825C14.8597 3.89825 14.6774 3.82275 14.543 3.68835C14.4086 3.55395 14.3331 3.37167 14.3331 3.1816C14.3331 2.99153 14.4086 2.80924 14.543 2.67484C14.6774 2.54045 14.8597 2.46494 15.0498 2.46494C15.2398 2.46494 15.4221 2.54045 15.5565 2.67484C15.6909 2.80924 15.7664 2.99153 15.7664 3.1816C15.7664 3.37167 15.6909 3.55395 15.5565 3.68835C15.4221 3.82275 15.2398 3.89825 15.0498 3.89825ZM6.44991 2.46494C6.63997 2.46494 6.82226 2.54045 6.95666 2.67484C7.09106 2.80924 7.16656 2.99153 7.16656 3.1816C7.16656 3.37167 7.09106 3.55395 6.95666 3.68835C6.82226 3.82275 6.63997 3.89825 6.44991 3.89825C6.25984 3.89825 6.07755 3.82275 5.94315 3.68835C5.80875 3.55395 5.73325 3.37167 5.73325 3.1816C5.73325 2.99153 5.80875 2.80924 5.94315 2.67484C6.07755 2.54045 6.25984 2.46494 6.44991 2.46494ZM1.43331 16.8554V16.7981H3.58328V16.8798C3.63703 19.9946 5.70933 22.713 8.69877 23.5898C10.2653 24.0858 11.9468 24.0858 13.5133 23.5898C16.5041 22.7142 18.5783 19.9957 18.6331 16.8798V16.7981H20.0664V16.8554C20.0664 20.8422 16.9934 24.3502 12.7565 25.1987C11.7616 25.3979 10.7425 25.4479 9.73291 25.3471C9.40057 25.3148 9.0702 25.2648 8.74321 25.1973C4.50633 24.3502 1.43331 20.8422 1.43331 16.8554ZM10.0332 29.6979C9.3882 29.6979 9.31653 28.6946 9.31653 28.2646V26.7438C9.37386 26.751 9.43263 26.7539 9.49068 26.7596C9.56234 26.7675 9.63401 26.7732 9.70567 26.7797C10.0447 26.8098 10.3865 26.8298 10.7312 26.8305H10.767C11.111 26.8305 11.4522 26.8098 11.789 26.7797C11.8607 26.7732 11.9366 26.7675 12.0104 26.7596C12.0671 26.7531 12.1258 26.751 12.1824 26.7438V28.2646C12.1824 28.6946 12.1108 29.6979 11.4658 29.6979H10.0332ZM37.9828 28.2646C36.0038 28.2646 34.3995 26.6602 34.3995 24.6813C34.3995 22.7023 36.0038 21.098 37.9828 21.098C39.9617 21.098 41.5661 22.7023 41.5661 24.6813C41.5637 26.6593 39.9607 28.2622 37.9828 28.2646Z" fill="white"/>
<path d="M37.983 22.5312C36.7956 22.5312 35.833 23.4938 35.833 24.6812C35.833 25.8686 36.7956 26.8312 37.983 26.8312C39.1704 26.8312 40.1329 25.8686 40.1329 24.6812C40.1329 23.4938 39.1704 22.5312 37.983 22.5312ZM37.983 25.3979C37.7929 25.3979 37.6106 25.3224 37.4762 25.188C37.3418 25.0536 37.2663 24.8713 37.2663 24.6812C37.2663 24.4912 37.3418 24.3089 37.4762 24.1745C37.6106 24.0401 37.7929 23.9646 37.983 23.9646C38.173 23.9646 38.3553 24.0401 38.4897 24.1745C38.6241 24.3089 38.6996 24.4912 38.6996 24.6812C38.6996 24.8713 38.6241 25.0536 38.4897 25.188C38.3553 25.3224 38.173 25.3979 37.983 25.3979Z" fill="white"/>
</g>
<defs>
<clipPath id="clip0_1_183">
<rect width="43" height="43" fill="white"/>
</clipPath>
</defs>
</svg>
