<svg width="44" height="43" viewBox="0 0 44 43" fill="none" xmlns="http://www.w3.org/2000/svg">
<path d="M37.336 18.7691C36.9124 18.4553 36.6829 17.944 36.7535 17.4326C36.8359 16.7992 36.8535 16.253 36.8123 15.823C36.6417 14.1146 35.3942 10.8315 32.7698 9.08248C32.758 8.65248 32.6344 7.79829 31.8989 6.8395C30.3631 4.85802 27.1502 3.56221 22.3486 2.99275C18.5708 2.55113 15.4521 4.05031 12.9512 6.2991C12.7041 5.42748 12.2157 4.73599 11.539 4.30599C10.5151 3.65518 9.18524 3.63194 7.79065 4.24788C6.46078 4.83477 5.21918 5.93883 4.29533 7.35667C2.34761 10.3434 2.4241 13.8357 4.47186 15.1432C4.63663 15.2477 4.81316 15.3291 4.99557 15.4046C5.01322 15.4104 5.02499 15.4221 5.04265 15.4279C5.05442 15.4337 5.06618 15.4279 5.07207 15.4337C5.44278 15.5673 5.83704 15.6429 6.26071 15.6429C6.44313 15.6429 6.63731 15.6255 6.82561 15.5964C5.68993 19.5187 6.37251 23.7257 8.82629 26.9449C9.98551 28.4732 11.4684 29.705 13.2278 30.6173C13.1925 31.7621 12.91 36.463 10.7917 39.4149C10.6504 39.6125 10.6975 39.8856 10.8976 40.025C10.9741 40.0773 11.0624 40.1064 11.1506 40.1064C11.2918 40.1064 11.4272 40.0425 11.5096 39.9204C13.8751 36.6257 14.0928 31.5354 14.1163 30.536C14.6812 29.9259 16.8938 27.2703 16.4642 23.1911C16.27 21.3375 16.7231 19.8441 17.7764 18.8737C18.7473 17.9788 20.1537 17.6127 21.6307 17.8626C22.7369 18.0486 23.3018 18.8621 23.802 19.5768C24.1904 20.1346 24.5611 20.6634 25.1495 20.7332C25.532 20.7738 25.9263 20.6053 26.3499 20.216C26.8736 19.7395 27.2032 19.048 27.2797 18.2752C27.3856 17.2292 27.7563 15.3756 29.0803 14.6783C29.1803 14.626 29.2745 14.5621 29.3686 14.4982C29.3686 14.5795 29.3921 14.6667 29.4392 14.7364C29.5569 14.9049 29.6805 15.0676 29.8099 15.2245C29.8982 15.3349 30.0277 15.3872 30.1571 15.3872C30.2513 15.3872 30.3513 15.3582 30.4337 15.2942C30.6279 15.1432 30.6573 14.87 30.5043 14.6783C30.3866 14.533 30.2748 14.3877 30.163 14.2309C30.0865 14.1263 29.9747 14.0682 29.8511 14.0507C30.2925 13.5277 30.5102 12.8363 30.4631 12.0227C30.4043 11 31.0751 10.1168 32.1343 9.82626C32.1696 9.81464 32.2049 9.80302 32.2461 9.7914C34.5057 11.2964 35.7532 14.2425 35.9179 15.9102C35.9473 16.2298 35.9356 16.6423 35.8885 17.113C35.8061 17.1363 35.7296 17.1595 35.6472 17.1769C35.406 17.2234 35.2471 17.45 35.2942 17.6883C35.3354 17.8975 35.5178 18.0427 35.7296 18.0427C35.759 18.0427 35.7826 18.0427 35.812 18.0369C35.8414 18.0311 35.865 18.0195 35.8944 18.0137C36.0003 18.589 36.318 19.1119 36.8064 19.4722C39.2838 21.291 39.7898 22.2265 39.7781 22.6914C39.7663 23.0633 39.3956 23.3364 38.8189 23.7141L38.66 23.8187C38.0598 24.2196 37.7185 24.6729 37.6597 25.1552C37.5891 25.7014 37.9009 26.0675 37.9304 26.1023C38.2069 26.4161 38.3305 26.7009 38.2952 26.9391C38.2481 27.2645 37.9127 27.5144 37.7185 27.6364C37.5361 27.7526 37.4243 27.9444 37.4243 28.1536C37.4184 28.3627 37.5243 28.5603 37.7068 28.6823C37.8892 28.8044 38.0304 29.0426 38.0127 29.1879C38.001 29.2692 37.9186 29.339 37.7597 29.3971C37.3655 29.5423 37.0712 29.8096 36.9124 30.1641C36.6299 30.7859 36.8418 31.4948 36.9124 31.704C37.0418 32.715 36.8476 33.4298 36.3239 33.8307C36.0944 34.0109 35.8002 34.1155 35.4766 34.1852C35.4119 34.0864 35.3118 34.0109 35.1882 33.9818C34.9764 33.9411 34.7763 34.0632 34.6998 34.2549C33.7878 34.2607 31.1457 33.3659 30.8103 33.2613C30.8044 33.2613 30.8044 33.2555 30.8044 33.2555C29.604 32.8487 27.1208 31.7737 25.5732 30.4314C25.6438 30.199 25.5144 29.9607 25.279 29.8852C25.1907 29.8619 25.1024 29.8677 25.0201 29.8968C24.5611 29.3855 24.2551 28.8392 24.2316 28.2872C24.2198 28.049 24.0138 27.8514 23.7667 27.8746C23.5196 27.8863 23.3313 28.0896 23.343 28.3337C23.4548 30.5534 26.4853 32.3315 28.5742 33.2961C28.5566 33.3019 28.5389 33.3077 28.5213 33.3136C27.0796 33.9586 25.8439 35.9342 24.6258 39.5195C24.5493 39.7461 24.6729 39.996 24.9024 40.0715C24.9495 40.089 24.9965 40.0948 25.0436 40.0948C25.226 40.0948 25.4025 39.9786 25.4614 39.7984C26.5794 36.5037 27.6975 34.6442 28.8802 34.1096C29.4098 33.8714 29.9335 33.9179 30.4631 34.0748C30.4808 34.0806 30.4925 34.0864 30.4984 34.0864H30.5043C30.8103 34.1794 33.7995 35.1904 34.9941 35.1207H35.0058C35.0294 35.1207 35.047 35.1149 35.0706 35.1091C35.7355 35.0626 36.3651 34.8883 36.8535 34.5106C37.6479 33.9005 37.9539 32.8952 37.7656 31.5296C37.7597 31.4948 37.7538 31.4599 37.7421 31.4309C37.7068 31.3321 37.389 30.4546 38.0539 30.2048C38.6953 29.9607 38.8424 29.5191 38.866 29.2809C38.9131 28.8625 38.7071 28.4557 38.4364 28.1768C38.7542 27.9211 39.066 27.555 39.1425 27.0611C39.219 26.5556 39.0249 26.0384 38.5718 25.5213C38.5718 25.5213 38.4953 25.4109 38.5129 25.2598C38.5423 25.039 38.7601 24.7833 39.1308 24.5392L39.2838 24.4405C39.8781 24.0511 40.6136 23.5688 40.6372 22.7146C40.6901 21.6919 39.6663 20.4775 37.336 18.7691ZM5.03676 7.82734C5.87234 6.54896 6.9786 5.56113 8.14959 5.04396C9.26174 4.55586 10.2915 4.55586 11.0565 5.04396C11.0682 5.04977 11.08 5.0614 11.0918 5.06721C9.27939 6.77559 7.62 8.94302 6.16068 11.523C5.64285 12.4353 5.22506 13.3883 4.90142 14.3645C3.31264 13.2895 3.3656 10.3783 5.03676 7.82734ZM5.71935 14.7015C6.02534 13.7544 6.43136 12.8305 6.93153 11.9472C8.34966 9.43113 9.95609 7.33342 11.7096 5.68315C11.9509 6.04342 12.1157 6.49086 12.1922 7.00221C10.5033 8.70477 9.1264 10.7211 8.05544 12.6213C7.68473 13.2779 7.37874 13.9519 7.12571 14.6376C6.71969 14.748 6.21952 14.8061 5.71935 14.7015ZM29.5863 12.0692C29.6216 12.6619 29.4863 13.4638 28.6684 13.8996C26.9796 14.7887 26.5206 16.9677 26.4029 18.1822C26.344 18.74 26.1146 19.234 25.7497 19.5652C25.4496 19.8383 25.2966 19.8615 25.2496 19.8499C25.0613 19.8267 24.7788 19.4257 24.5317 19.0713C23.9903 18.2984 23.2548 17.2409 21.7778 16.991C20.0242 16.6946 18.3413 17.1421 17.1703 18.2287C16.2877 19.0422 15.2991 20.5763 15.5815 23.2725C15.9405 26.7067 14.1928 29.0833 13.575 29.8038C11.9568 28.9555 10.5975 27.8107 9.53242 26.4103C6.66085 22.6333 6.39017 17.3919 8.83806 13.0513C9.89725 11.1802 11.2565 9.18707 12.9218 7.53099C12.963 7.50194 13.0042 7.46707 13.0336 7.42059C15.1932 5.31707 17.8588 3.77721 21.0422 3.77721C21.4365 3.77721 21.8366 3.80045 22.2426 3.84694C27.8799 4.51518 30.2042 6.10153 31.1692 7.3218C31.7341 8.03072 31.8636 8.65248 31.8871 8.98369C30.4513 9.39045 29.504 10.6514 29.5863 12.0692Z" fill="#08607C"/>
<path d="M34.1994 24.8414L33.7228 24.5276C33.5168 24.3939 33.2462 24.452 33.1108 24.6496C32.9755 24.853 33.0284 25.1203 33.2344 25.2539L33.711 25.5677C33.7875 25.62 33.8699 25.6432 33.9582 25.6432C34.0994 25.6432 34.2406 25.5735 34.3289 25.4457C34.4583 25.2481 34.3995 24.975 34.1994 24.8414Z" fill="#08607C"/>
<path d="M33.0346 28.6301L33.476 28.9207C33.4818 28.9207 33.5171 28.9497 33.523 28.9497C33.5936 28.9904 33.6701 29.0137 33.7408 29.0137C33.8879 29.0137 34.0232 28.9381 34.1115 28.8045C34.2409 28.6011 34.1703 28.328 33.9644 28.1943L33.523 27.9038C33.3171 27.7701 33.0464 27.8283 32.9111 28.0258C32.7757 28.2292 32.8346 28.5023 33.0346 28.6301Z" fill="#08607C"/>
<path d="M35.3996 26.7822C35.482 26.91 35.6291 26.9798 35.7703 26.9798C35.8527 26.9798 35.9351 26.9565 36.0116 26.91C36.2175 26.7764 36.2764 26.5091 36.141 26.3057C36.0057 26.1023 35.835 25.928 35.6291 25.7885C35.429 25.6491 35.1524 25.6956 35.0112 25.899C34.87 26.0965 34.923 26.3696 35.123 26.5091C35.2348 26.573 35.3231 26.6718 35.3996 26.7822Z" fill="#08607C"/>
<path d="M26.5971 22.3196C26.3617 22.2789 26.1263 22.43 26.0793 22.6624C26.0557 22.7845 26.0439 22.9065 26.0439 23.0285C26.0439 23.1505 26.0557 23.2726 26.0793 23.3888C26.1204 23.598 26.3029 23.7432 26.5147 23.7432C26.5441 23.7432 26.5735 23.7432 26.5971 23.7374C26.8383 23.6909 26.9972 23.4643 26.9501 23.2261C26.9384 23.1622 26.9325 23.0982 26.9325 23.0285C26.9325 22.9646 26.9384 22.8949 26.9501 22.8309C26.9913 22.5927 26.8383 22.3661 26.5971 22.3196Z" fill="#08607C"/>
<path d="M35.0001 28.7928C35.0884 28.9148 35.2237 28.9846 35.3649 28.9846C35.4532 28.9846 35.5356 28.9613 35.6121 28.909C35.818 28.7696 35.9887 28.5952 36.1358 28.3802L36.1417 28.3686C36.2711 28.1652 36.2064 27.9038 36.0005 27.7759C35.7945 27.6481 35.5238 27.7062 35.3885 27.9096C35.312 28.02 35.2178 28.1129 35.1119 28.1885C34.9177 28.3221 34.8648 28.5952 35.0001 28.7928Z" fill="#08607C"/>
<path d="M27.344 24.9052L27.8206 25.219C27.8971 25.2713 27.9795 25.2946 28.0678 25.2946C28.209 25.2946 28.3502 25.2248 28.4385 25.097C28.5738 24.8936 28.5209 24.6263 28.3149 24.4927L27.8324 24.1731C27.6265 24.0394 27.3558 24.0975 27.2204 24.2951C27.0851 24.4985 27.1381 24.7716 27.344 24.9052Z" fill="#08607C"/>
<path d="M31.1402 27.3865L31.6168 27.7003C31.6933 27.7526 31.7757 27.7758 31.864 27.7758C32.0052 27.7758 32.1464 27.7061 32.2347 27.5782C32.37 27.3749 32.3171 27.1076 32.1111 26.9739L31.6345 26.6601C31.4285 26.5265 31.1578 26.5846 31.0225 26.7822C30.8813 26.9855 30.9342 27.2528 31.1402 27.3865Z" fill="#08607C"/>
<path d="M29.9269 22.0464C29.7209 21.9127 29.4503 21.9708 29.3149 22.1684C29.1796 22.3718 29.2325 22.6391 29.4385 22.7727L29.9151 23.0865C29.9916 23.1388 30.074 23.162 30.1623 23.162C30.3035 23.162 30.4447 23.0923 30.533 22.9645C30.6683 22.7611 30.6154 22.4938 30.4094 22.3602L29.9269 22.0464Z" fill="#08607C"/>
<path d="M28.28 21.1631C28.0328 21.1225 27.7857 21.1341 27.5444 21.1864C27.3032 21.2387 27.1561 21.4711 27.209 21.7093C27.2561 21.9127 27.4385 22.0522 27.6386 22.0522C27.668 22.0522 27.7033 22.0464 27.7327 22.0406C27.8622 22.0115 27.9975 22.0057 28.127 22.0289C28.3682 22.0638 28.5977 21.9069 28.6389 21.6687C28.6801 21.4246 28.5212 21.2038 28.28 21.1631Z" fill="#08607C"/>
<path d="M29.1159 25.5388C28.9806 25.7421 29.0336 26.0094 29.2395 26.1431L29.7161 26.4511C29.7926 26.5034 29.875 26.5266 29.9633 26.5266C30.1045 26.5266 30.2457 26.4569 30.334 26.329C30.4693 26.1257 30.4164 25.8584 30.2104 25.7247L29.7338 25.4167C29.5278 25.2831 29.2513 25.3412 29.1159 25.5388Z" fill="#08607C"/>
<path d="M31.8283 23.2898C31.6223 23.1562 31.3516 23.2085 31.2163 23.4118C31.0809 23.6152 31.1339 23.8825 31.3399 24.0162L31.8165 24.3299C31.893 24.3822 31.9754 24.4055 32.0636 24.4055C32.2049 24.4055 32.3461 24.3358 32.4343 24.2079C32.5697 24.0045 32.5167 23.7372 32.3108 23.6036L31.8283 23.2898Z" fill="#08607C"/>
<path d="M30.4387 30.4835C30.221 30.3789 29.9562 30.4661 29.8444 30.6869C29.7385 30.9019 29.8268 31.1634 30.0504 31.2738L30.5329 31.5062C30.5976 31.5353 30.6623 31.5527 30.7271 31.5527C30.8918 31.5527 31.0507 31.4597 31.1272 31.3086C31.2331 31.0936 31.1449 30.8321 30.9212 30.7217L30.4387 30.4835Z" fill="#08607C"/>
<path d="M28.5033 29.5597C28.2856 29.4551 28.0208 29.5422 27.909 29.7631C27.8031 29.9781 27.8913 30.2395 28.1149 30.3499L28.5975 30.5824C28.6622 30.6114 28.7269 30.6289 28.7916 30.6289C28.9564 30.6289 29.1153 30.5359 29.1918 30.3848C29.2977 30.1698 29.2094 29.9083 28.9858 29.7979L28.5033 29.5597Z" fill="#08607C"/>
<path d="M31.7808 31.6112C31.6749 31.8262 31.769 32.0877 31.9867 32.1981L32.4692 32.4306C32.534 32.4596 32.5987 32.477 32.6634 32.477C32.8282 32.477 32.9871 32.3841 33.0636 32.233C33.1695 32.018 33.0753 31.7565 32.8576 31.6461L32.3751 31.4137C32.1515 31.3033 31.8867 31.3962 31.7808 31.6112Z" fill="#08607C"/>
<path d="M25.8737 29.3795C25.9149 29.6178 26.1502 29.7747 26.3915 29.734C26.5092 29.7108 26.6386 29.7108 26.7622 29.734C26.7916 29.7398 26.8211 29.7398 26.8446 29.7398C27.0506 29.7398 27.2389 29.5945 27.28 29.3854C27.3271 29.1471 27.1682 28.9205 26.927 28.874C26.6916 28.8275 26.4562 28.8275 26.2326 28.8682C25.9914 28.9147 25.8325 29.1413 25.8737 29.3795Z" fill="#08607C"/>
<path d="M34.506 32.4304L34.3059 32.3316C34.0882 32.227 33.8234 32.3142 33.7116 32.535C33.6057 32.75 33.6939 33.0115 33.9175 33.1219L34.1176 33.2207C34.1823 33.2498 34.2471 33.2904 34.3059 33.3369C34.3883 33.4008 34.4824 33.4299 34.5766 33.4299C34.7061 33.4299 34.8414 33.3718 34.9297 33.2614C35.0768 33.0696 35.0415 32.7965 34.8532 32.6454C34.7414 32.5583 34.6296 32.4885 34.506 32.4304Z" fill="#08607C"/>
<path d="M34.0757 17.1247C33.9051 17.084 33.7286 17.0376 33.5579 16.9736C33.3284 16.8923 33.0754 17.0085 32.993 17.2409C32.9106 17.4676 33.0283 17.7174 33.2637 17.7988C33.4696 17.8685 33.6756 17.9324 33.8815 17.9789C33.9169 17.9847 33.9463 17.9905 33.9816 17.9905C34.1816 17.9905 34.3641 17.8511 34.4111 17.6535C34.4641 17.4153 34.317 17.177 34.0757 17.1247Z" fill="#08607C"/>
<path d="M31.6753 15.8696C31.487 15.7127 31.2105 15.7359 31.0516 15.9219C30.8927 16.1078 30.9162 16.3809 31.1045 16.5378C31.2634 16.6715 31.4282 16.7993 31.5929 16.9155C31.6694 16.9737 31.7636 16.9969 31.8519 16.9969C31.9872 16.9969 32.1225 16.933 32.2108 16.8168C32.352 16.6192 32.3108 16.3461 32.1108 16.2066C31.9695 16.102 31.8224 15.9916 31.6753 15.8696Z" fill="#08607C"/>
</svg>
