<svg width="55" height="60" viewBox="0 0 55 60" fill="none" xmlns="http://www.w3.org/2000/svg">
<mask id="path-1-inside-1_0_1334" fill="white">
<path d="M48.8033 15.7575C51.2155 15.7575 53.1777 13.7953 53.1777 11.3841C53.1777 8.97285 51.2155 7.01066 48.8033 7.01066C46.3921 7.01066 44.4299 8.97285 44.4299 11.3841C44.4299 12.1125 44.6258 12.7894 44.9427 13.3941L41.1111 16.5863C38.2874 13.7532 34.3827 11.9963 30.0758 11.9963C29.8021 11.9963 29.5358 12.0235 29.2658 12.0375L28.8233 8.09347C29.9193 7.59754 30.6871 6.49972 30.6871 5.22097C30.6871 3.48097 29.2705 2.06441 27.5305 2.06441C25.7905 2.06441 24.374 3.48097 24.374 5.22097C24.374 6.77441 25.5046 8.06254 26.9849 8.32222L27.4246 12.2391C25.3771 12.5925 23.4674 13.3425 21.7743 14.4141L17.278 8.14129C17.9793 7.36504 18.419 6.34691 18.419 5.22097C18.419 2.80972 16.4568 0.847534 14.0455 0.847534C11.6343 0.847534 9.67208 2.80972 9.67208 5.22097C9.67208 7.63316 11.6343 9.59535 14.0455 9.59535C14.6624 9.59535 15.2474 9.4641 15.7808 9.23253L20.264 15.4875C17.2696 17.9203 15.2061 21.4416 14.6521 25.441L9.43958 25.2882C9.23333 24.3075 8.72052 23.4282 7.93114 22.7907C7.15489 22.1625 6.17896 21.8185 5.18333 21.8185C3.85489 21.8185 2.61458 22.41 1.7802 23.4422C1.04614 24.3516 0.70958 25.4907 0.832392 26.6532C0.955205 27.8147 1.52333 28.8591 2.43177 29.5932C3.20802 30.2213 4.18395 30.5654 5.17958 30.5654C6.50708 30.5654 7.74739 29.9738 8.58271 28.9416C9.01302 28.4082 9.28864 27.7922 9.43302 27.1425L14.5011 27.2907C14.4993 27.39 14.4861 27.4866 14.4861 27.586C14.4861 31.7522 16.138 35.5332 18.8099 38.3325L16.7802 40.5132C16.3649 40.3116 15.9036 40.1879 15.4115 40.1879C13.6715 40.1879 12.2549 41.6044 12.2549 43.3444C12.2549 45.0844 13.6715 46.501 15.4115 46.501C17.1515 46.501 18.568 45.0844 18.568 43.3444C18.568 42.7716 18.403 42.241 18.1349 41.7769L20.1571 39.6047C22.8543 41.8341 26.3099 43.1757 30.074 43.1757C30.5661 43.1757 31.0518 43.1466 31.5318 43.1016L32.7055 50.7038C31.7108 51.0844 30.8708 51.8147 30.3693 52.8038C29.2799 54.9554 30.1443 57.5925 32.2958 58.6829C32.9052 58.9913 33.5877 59.1544 34.2674 59.1544C35.9268 59.1544 37.423 58.2357 38.173 56.7563C38.7008 55.7138 38.7908 54.5288 38.4261 53.4179C38.0624 52.3079 37.288 51.406 36.2455 50.8782C35.714 50.6091 35.128 50.4591 34.5355 50.4225L33.3618 42.8194C38.8021 41.6457 43.1905 37.6266 44.8921 32.4L47.8883 33.18C47.9633 34.8544 49.3386 36.1979 51.0308 36.1979C52.7718 36.1979 54.1883 34.7813 54.1883 33.0413C54.1883 31.3013 52.7718 29.8847 51.0308 29.8847C49.8983 29.8847 48.9111 30.4894 48.3543 31.3875L45.3618 30.6085C45.5549 29.6297 45.6618 28.62 45.6618 27.586C45.6618 23.9625 44.4083 20.6325 42.3271 17.9822L46.1249 14.8182C46.8693 15.3975 47.7908 15.7575 48.8033 15.7575ZM26.2255 5.22003C26.2255 4.50097 26.8105 3.91597 27.5296 3.91597C28.2486 3.91597 28.8336 4.50097 28.8336 5.22003C28.8336 5.9391 28.2496 6.5241 27.5305 6.5241C26.8105 6.5241 26.2255 5.9391 26.2255 5.22003ZM11.5246 5.22003C11.5246 3.82972 12.6552 2.6991 14.0455 2.6991C15.4358 2.6991 16.5665 3.82972 16.5665 5.22003C16.5665 6.61035 15.4358 7.74191 14.0455 7.74191C12.6552 7.74191 11.5246 6.61035 11.5246 5.22003ZM7.1427 27.7754C6.29614 28.8225 4.64614 28.9988 3.59708 28.1513C3.07302 27.7275 2.74583 27.1257 2.67458 26.4563C2.60427 25.786 2.79739 25.1297 3.22114 24.6057C3.70208 24.0104 4.41739 23.6691 5.18427 23.6691C5.76552 23.6691 6.31396 23.8622 6.76677 24.2288C7.29083 24.6525 7.61802 25.2544 7.68927 25.9238C7.75958 26.595 7.56552 27.2522 7.1427 27.7754ZM36.6683 53.9935C36.8783 54.6338 36.8268 55.3172 36.5221 55.9172C36.0908 56.7713 35.2274 57.3 34.2702 57.3C33.8736 57.3 33.4911 57.2091 33.1349 57.0282C31.8946 56.4 31.3968 54.8804 32.0249 53.641C32.4561 52.7869 33.3196 52.2582 34.2768 52.2582C34.6743 52.2582 35.0558 52.3491 35.4121 52.53C36.013 52.8347 36.4593 53.3541 36.6683 53.9935ZM51.0336 31.7363C51.7536 31.7363 52.3386 32.3213 52.3386 33.0404C52.3386 33.7594 51.7536 34.3444 51.0336 34.3444C50.3146 34.3444 49.7296 33.7594 49.7296 33.0404C49.7296 32.3213 50.3146 31.7363 51.0336 31.7363ZM15.4124 44.6485C14.6933 44.6485 14.1083 44.0635 14.1083 43.3444C14.1083 42.6254 14.6933 42.0404 15.4124 42.0404C16.1315 42.0404 16.7165 42.6254 16.7165 43.3444C16.7165 44.0635 16.1324 44.6485 15.4124 44.6485ZM30.0758 41.3222C22.5008 41.3222 16.3396 35.16 16.3396 27.585C16.3396 20.01 22.5018 13.8488 30.0758 13.8488C37.6499 13.8488 43.8121 20.01 43.8121 27.585C43.8121 35.16 37.6499 41.3222 30.0758 41.3222ZM48.8033 8.86222C50.1936 8.86222 51.3252 9.99285 51.3252 11.3832C51.3252 12.7735 50.1936 13.9041 48.8033 13.9041C47.413 13.9041 46.2824 12.7735 46.2824 11.3832C46.2824 9.99285 47.413 8.86222 48.8033 8.86222Z"/>
</mask>
<path d="M48.8033 15.7575C51.2155 15.7575 53.1777 13.7953 53.1777 11.3841C53.1777 8.97285 51.2155 7.01066 48.8033 7.01066C46.3921 7.01066 44.4299 8.97285 44.4299 11.3841C44.4299 12.1125 44.6258 12.7894 44.9427 13.3941L41.1111 16.5863C38.2874 13.7532 34.3827 11.9963 30.0758 11.9963C29.8021 11.9963 29.5358 12.0235 29.2658 12.0375L28.8233 8.09347C29.9193 7.59754 30.6871 6.49972 30.6871 5.22097C30.6871 3.48097 29.2705 2.06441 27.5305 2.06441C25.7905 2.06441 24.374 3.48097 24.374 5.22097C24.374 6.77441 25.5046 8.06254 26.9849 8.32222L27.4246 12.2391C25.3771 12.5925 23.4674 13.3425 21.7743 14.4141L17.278 8.14129C17.9793 7.36504 18.419 6.34691 18.419 5.22097C18.419 2.80972 16.4568 0.847534 14.0455 0.847534C11.6343 0.847534 9.67208 2.80972 9.67208 5.22097C9.67208 7.63316 11.6343 9.59535 14.0455 9.59535C14.6624 9.59535 15.2474 9.4641 15.7808 9.23253L20.264 15.4875C17.2696 17.9203 15.2061 21.4416 14.6521 25.441L9.43958 25.2882C9.23333 24.3075 8.72052 23.4282 7.93114 22.7907C7.15489 22.1625 6.17896 21.8185 5.18333 21.8185C3.85489 21.8185 2.61458 22.41 1.7802 23.4422C1.04614 24.3516 0.70958 25.4907 0.832392 26.6532C0.955205 27.8147 1.52333 28.8591 2.43177 29.5932C3.20802 30.2213 4.18395 30.5654 5.17958 30.5654C6.50708 30.5654 7.74739 29.9738 8.58271 28.9416C9.01302 28.4082 9.28864 27.7922 9.43302 27.1425L14.5011 27.2907C14.4993 27.39 14.4861 27.4866 14.4861 27.586C14.4861 31.7522 16.138 35.5332 18.8099 38.3325L16.7802 40.5132C16.3649 40.3116 15.9036 40.1879 15.4115 40.1879C13.6715 40.1879 12.2549 41.6044 12.2549 43.3444C12.2549 45.0844 13.6715 46.501 15.4115 46.501C17.1515 46.501 18.568 45.0844 18.568 43.3444C18.568 42.7716 18.403 42.241 18.1349 41.7769L20.1571 39.6047C22.8543 41.8341 26.3099 43.1757 30.074 43.1757C30.5661 43.1757 31.0518 43.1466 31.5318 43.1016L32.7055 50.7038C31.7108 51.0844 30.8708 51.8147 30.3693 52.8038C29.2799 54.9554 30.1443 57.5925 32.2958 58.6829C32.9052 58.9913 33.5877 59.1544 34.2674 59.1544C35.9268 59.1544 37.423 58.2357 38.173 56.7563C38.7008 55.7138 38.7908 54.5288 38.4261 53.4179C38.0624 52.3079 37.288 51.406 36.2455 50.8782C35.714 50.6091 35.128 50.4591 34.5355 50.4225L33.3618 42.8194C38.8021 41.6457 43.1905 37.6266 44.8921 32.4L47.8883 33.18C47.9633 34.8544 49.3386 36.1979 51.0308 36.1979C52.7718 36.1979 54.1883 34.7813 54.1883 33.0413C54.1883 31.3013 52.7718 29.8847 51.0308 29.8847C49.8983 29.8847 48.9111 30.4894 48.3543 31.3875L45.3618 30.6085C45.5549 29.6297 45.6618 28.62 45.6618 27.586C45.6618 23.9625 44.4083 20.6325 42.3271 17.9822L46.1249 14.8182C46.8693 15.3975 47.7908 15.7575 48.8033 15.7575ZM26.2255 5.22003C26.2255 4.50097 26.8105 3.91597 27.5296 3.91597C28.2486 3.91597 28.8336 4.50097 28.8336 5.22003C28.8336 5.9391 28.2496 6.5241 27.5305 6.5241C26.8105 6.5241 26.2255 5.9391 26.2255 5.22003ZM11.5246 5.22003C11.5246 3.82972 12.6552 2.6991 14.0455 2.6991C15.4358 2.6991 16.5665 3.82972 16.5665 5.22003C16.5665 6.61035 15.4358 7.74191 14.0455 7.74191C12.6552 7.74191 11.5246 6.61035 11.5246 5.22003ZM7.1427 27.7754C6.29614 28.8225 4.64614 28.9988 3.59708 28.1513C3.07302 27.7275 2.74583 27.1257 2.67458 26.4563C2.60427 25.786 2.79739 25.1297 3.22114 24.6057C3.70208 24.0104 4.41739 23.6691 5.18427 23.6691C5.76552 23.6691 6.31396 23.8622 6.76677 24.2288C7.29083 24.6525 7.61802 25.2544 7.68927 25.9238C7.75958 26.595 7.56552 27.2522 7.1427 27.7754ZM36.6683 53.9935C36.8783 54.6338 36.8268 55.3172 36.5221 55.9172C36.0908 56.7713 35.2274 57.3 34.2702 57.3C33.8736 57.3 33.4911 57.2091 33.1349 57.0282C31.8946 56.4 31.3968 54.8804 32.0249 53.641C32.4561 52.7869 33.3196 52.2582 34.2768 52.2582C34.6743 52.2582 35.0558 52.3491 35.4121 52.53C36.013 52.8347 36.4593 53.3541 36.6683 53.9935ZM51.0336 31.7363C51.7536 31.7363 52.3386 32.3213 52.3386 33.0404C52.3386 33.7594 51.7536 34.3444 51.0336 34.3444C50.3146 34.3444 49.7296 33.7594 49.7296 33.0404C49.7296 32.3213 50.3146 31.7363 51.0336 31.7363ZM15.4124 44.6485C14.6933 44.6485 14.1083 44.0635 14.1083 43.3444C14.1083 42.6254 14.6933 42.0404 15.4124 42.0404C16.1315 42.0404 16.7165 42.6254 16.7165 43.3444C16.7165 44.0635 16.1324 44.6485 15.4124 44.6485ZM30.0758 41.3222C22.5008 41.3222 16.3396 35.16 16.3396 27.585C16.3396 20.01 22.5018 13.8488 30.0758 13.8488C37.6499 13.8488 43.8121 20.01 43.8121 27.585C43.8121 35.16 37.6499 41.3222 30.0758 41.3222ZM48.8033 8.86222C50.1936 8.86222 51.3252 9.99285 51.3252 11.3832C51.3252 12.7735 50.1936 13.9041 48.8033 13.9041C47.413 13.9041 46.2824 12.7735 46.2824 11.3832C46.2824 9.99285 47.413 8.86222 48.8033 8.86222Z" fill="#08607C" stroke="#F9F9F9" stroke-width="0.8" mask="url(#path-1-inside-1_0_1334)"/>
<path d="M26.8168 19.3616C29.1176 19.3616 30.9902 21.2343 30.9902 23.5351C30.9902 25.8368 29.1176 27.7094 26.8168 27.7094C24.516 27.7094 22.6434 25.8368 22.6434 23.5351C22.6434 21.2343 24.516 19.3616 26.8168 19.3616ZM26.8168 20.8141C25.316 20.8141 24.0959 22.0343 24.0959 23.5351C24.0959 25.0357 25.3159 26.2569 26.8168 26.2569C28.3177 26.2569 29.5377 25.0357 29.5377 23.5351C29.5377 22.0343 28.3176 20.8141 26.8168 20.8141Z" fill="#08607C" stroke="#F9F9F9" stroke-width="0.4"/>
<path d="M37.7904 31.5195C36.1608 31.5195 34.8338 30.1925 34.8338 28.562C34.8338 26.9324 36.1608 25.6054 37.7904 25.6054C39.4199 25.6054 40.7469 26.9324 40.7469 28.562C40.7469 30.1925 39.4199 31.5195 37.7904 31.5195ZM37.7913 30.067C38.6209 30.067 39.2954 29.3923 39.2954 28.562C39.2954 27.7324 38.6208 27.0579 37.7913 27.0579C36.9618 27.0579 36.2872 27.7324 36.2872 28.562C36.2872 29.3923 36.9617 30.067 37.7913 30.067Z" fill="#08607C" stroke="#F9F9F9" stroke-width="0.4"/>
<path d="M32.9061 34.723V34.7231C32.9061 36.3526 31.5791 37.6797 29.9495 37.6797C28.32 37.6797 26.993 36.3526 26.993 34.7231C26.993 33.0935 28.32 31.7665 29.9495 31.7665C31.5801 31.7665 32.907 33.0936 32.9061 34.723ZM28.4455 34.724C28.4455 35.5535 29.12 36.2281 29.9495 36.2281L31.2536 34.724H31.4536C31.4536 34.7239 31.4536 34.7239 31.4536 34.7238C31.4535 33.8944 30.779 33.22 29.9495 33.22C29.12 33.22 28.4455 33.8945 28.4455 34.724Z" fill="#08607C" stroke="#F9F9F9" stroke-width="0.4"/>
</svg>
