<svg width="49" height="57" viewBox="0 0 49 57" fill="none" xmlns="http://www.w3.org/2000/svg">
<path d="M45.0443 18.1467L41.0858 18.9956L42.0566 21.5772L37.6748 22.3663" stroke="#08607C" stroke-width="1.5" stroke-miterlimit="10" stroke-linecap="round" stroke-linejoin="round"/>
<path d="M47.3738 27.18L43.3589 26.6406L43.3836 29.3945L38.9912 28.656" stroke="#08607C" stroke-width="1.5" stroke-miterlimit="10" stroke-linecap="round" stroke-linejoin="round"/>
<path d="M45.0357 38.2912L42.25 35.3647L40.5641 37.5579L37.6084 34.2389" stroke="#08607C" stroke-width="1.5" stroke-miterlimit="10" stroke-linecap="round" stroke-linejoin="round"/>
<path d="M3.32812 18.1465L7.28665 18.9954L6.31582 21.577L10.6976 22.3661" stroke="#08607C" stroke-width="1.5" stroke-miterlimit="10" stroke-linecap="round" stroke-linejoin="round"/>
<path d="M1 27.1798L5.01493 26.6404L4.99015 29.3943L9.38257 28.6558" stroke="#08607C" stroke-width="1.5" stroke-miterlimit="10" stroke-linecap="round" stroke-linejoin="round"/>
<path d="M3.33789 38.291L6.12358 35.3645L7.80948 37.5577L10.7652 34.2386" stroke="#08607C" stroke-width="1.5" stroke-miterlimit="10" stroke-linecap="round" stroke-linejoin="round"/>
<path d="M27.9345 55.4375V41.4027C27.9345 40.4464 28.5606 39.6232 29.4756 39.1869C31.4247 38.2576 32.6653 36.2331 32.2374 33.9784C31.8657 32.0195 30.1887 30.4469 28.0862 30.0806C26.9784 29.8876 25.9209 30.0222 25 30.3952C24.4747 30.608 23.8988 30.608 23.3734 30.3952C22.4527 30.0223 21.3954 29.8877 20.2878 30.0805C18.1852 30.4467 16.5081 32.0192 16.1362 33.9782C15.7082 36.233 16.9489 38.2575 18.898 39.1869C19.8131 39.6232 20.4391 40.4464 20.4391 41.4027V55.4375" stroke="#08607C" stroke-width="1.5" stroke-miterlimit="10" stroke-linecap="round" stroke-linejoin="round"/>
<path d="M27.9345 1V15.0349C27.9345 15.9911 28.5606 16.8143 29.4756 17.2507C31.4247 18.18 32.6653 20.2044 32.2374 22.4591C31.8657 24.418 30.1887 25.9906 28.0862 26.3569C26.9784 26.5499 25.9209 26.4153 25 26.0423C24.4747 25.8295 23.8988 25.8295 23.3734 26.0423C22.4527 26.4152 21.3954 26.5499 20.2878 26.357C18.1852 25.9908 16.5081 24.4183 16.1362 22.4594C15.7082 20.2045 16.9489 18.18 18.898 17.2507C19.8131 16.8143 20.4391 15.9911 20.4391 15.0348V1" stroke="#08607C" stroke-width="1.5" stroke-miterlimit="10" stroke-linecap="round" stroke-linejoin="round"/>
</svg>
