<svg width="61" height="60" viewBox="0 0 61 60" fill="none" xmlns="http://www.w3.org/2000/svg">
<path d="M0.5 0.0001297H60.5V60.0001H0.5V0.0001297Z" fill="white"/>
<path d="M35.6222 56.0755C37.4315 55.063 39.1331 53.788 40.6706 52.2505C48.6687 44.2525 49.5546 31.8364 43.3284 22.8599L48.2831 17.9052C49.0426 17.1458 50.2741 17.1458 51.0335 17.9052L53.4874 20.3591C54.2468 21.1197 55.4784 21.1197 56.2378 20.3591L59.0503 17.5466C59.8097 16.7872 59.8097 15.5556 59.0503 14.7962L56.5964 12.3423C55.837 11.5829 55.837 10.3513 56.5964 9.59192L59.0515 7.13684C59.8108 6.37746 59.8108 5.14582 59.0515 4.38645L56.239 1.57395C55.4796 0.814574 54.2479 0.814574 53.4886 1.57395L51.0335 4.02903C50.2741 4.7884 49.0426 4.7884 48.2831 4.02903L45.828 1.57395C45.0675 0.814574 43.837 0.814574 43.0776 1.57395L40.264 4.38645C39.5046 5.14582 39.5046 6.37746 40.264 7.13684L42.7202 9.59192C43.4796 10.3513 43.4796 11.5829 42.7202 12.3423L37.8124 17.2501C28.8288 10.7896 16.2405 11.5818 8.14521 19.6325C-0.80674 28.5353 -0.887599 43.1275 7.97178 52.1228C14.5577 58.8107 24.2058 60.6177 32.4476 57.5439M35.5426 47.1227C29.3801 53.2852 19.3891 53.2852 13.2266 47.1227C7.06404 40.9602 7.06404 30.9691 13.2266 24.8066C19.3891 18.6441 29.3801 18.6441 35.5426 24.8066C41.7051 30.9691 41.705 40.9602 35.5426 47.1227Z" stroke="#08607C" stroke-width="1.5" stroke-miterlimit="10" stroke-linecap="round" stroke-linejoin="round"/>
<path d="M21.4904 30.5901C22.0022 30.7948 22.4805 31.1044 22.8951 31.5189L24.3713 32.9952L25.8468 31.5189C27.4874 29.8782 30.1478 29.8782 31.7885 31.5189C33.4292 33.1596 33.4292 35.82 31.7885 37.4607L24.3713 44.8779L16.9541 37.4607C16.1337 36.6404 15.7236 35.5655 15.7236 34.4898C15.7236 33.4141 16.1337 32.3393 16.9541 31.5189C17.513 30.9601 18.1898 30.5919 18.9044 30.4135" stroke="#08607C" stroke-width="1.5" stroke-miterlimit="10" stroke-linecap="round" stroke-linejoin="round"/>
</svg>
