<svg width="20" height="17" viewBox="0 0 20 17" fill="none" xmlns="http://www.w3.org/2000/svg">
<path d="M20 2.63046C18.7419 2.68842 18.7694 2.6837 18.6271 2.69561L19.3723 0.56776C19.3723 0.56776 17.0465 1.42331 16.4569 1.57635C14.9085 0.184635 12.6068 0.123112 10.9613 1.13448C9.61379 1.96288 8.89055 3.38546 9.13176 5.04819C6.50926 4.68428 4.29961 3.4412 2.55508 1.34549L2.00332 0.682799L1.59102 1.43995C1.06992 2.39667 0.896875 3.49057 1.10367 4.5201C1.18773 4.9395 1.33215 5.34449 1.53242 5.72245L1.0591 5.53905L1.00297 6.32991C0.946055 7.13327 1.21352 8.07108 1.71859 8.83831C1.88115 9.08535 2.06788 9.31561 2.27602 9.52569L2.03141 9.48819L2.32984 10.3944C2.72215 11.585 3.53699 12.5062 4.59441 13.0183C3.53836 13.4664 2.68523 13.7524 1.28297 14.2137L0 14.6355L1.185 15.2833C1.6368 15.5304 3.23332 16.3554 4.81078 16.6029C8.31727 17.1528 12.2652 16.705 14.9229 14.3114C17.1616 12.2952 17.8961 9.42733 17.7435 6.44288C17.7205 5.99104 17.8443 5.55983 18.092 5.22885C18.5884 4.5662 19.997 2.63491 20 2.63046ZM17.155 4.52694C16.7435 5.07643 16.5373 5.77819 16.5743 6.50268C16.7282 9.51307 15.9091 11.8477 14.1396 13.4413C12.0725 15.303 8.73824 16.0338 4.99223 15.4462C4.31383 15.3398 3.61266 15.1016 3.03238 14.8637C4.20809 14.4592 5.11598 14.0987 6.58219 13.4047L8.62898 12.4359L6.36918 12.2912C5.28672 12.222 4.38539 11.6974 3.83133 10.8456C4.12241 10.8289 4.41084 10.7808 4.6916 10.7022L6.84691 10.1019L4.67363 9.56967C3.61754 9.31108 3.01559 8.67917 2.69652 8.19456C2.48703 7.87612 2.35016 7.54987 2.26805 7.24913C2.48598 7.30757 2.74004 7.34924 3.14969 7.38983L5.16129 7.58878L3.56754 6.3455C2.4191 5.44979 1.95895 4.10413 2.29629 2.81049C5.88027 6.52784 10.0884 6.24846 10.5119 6.34675C10.4187 5.44112 10.4163 5.43897 10.3918 5.35276C9.84941 3.43518 11.0382 2.46155 11.5744 2.13194C12.6944 1.44362 14.4722 1.33987 15.7036 2.47389C15.9695 2.71866 16.3292 2.81491 16.6658 2.73132C16.9679 2.65624 17.2159 2.57674 17.4586 2.49022L16.9533 3.93339L17.5984 3.93385C17.4509 4.13173 17.303 4.3294 17.155 4.52694Z" fill="#076280"/>
</svg>
